<svg width="924" height="349" xmlns="http://www.w3.org/2000/svg" preserveAspectRatio="xMidYMid meet">
 <metadata>Created by potrace 1.15, written by Peter Selinger 2001-2017</metadata>

 <g>
  <title>background</title>
  <rect fill="none" id="canvas_background" height="351" width="926" y="-1" x="-1"/>
 </g>
 <g>
  <title>Layer 1</title>
  <g id="svg_1" fill="#000000" transform="translate(0,1080) scale(0.10000000149011612,-0.10000000149011612) ">
   <path id="svg_2" d="m4020.000015,10387.444458c0,-7 5,-15 10,-18c6,-4 7,-11 4,-17c-4,-6 -9,-5 -15,3c-6,10 -8,7 -6,-9c0,-12 5,-22 9,-22c4,0 8,-5 8,-11c0,-6 -9,-9 -19,-6c-13,3 -18,0 -15,-8c7,-17 -12,-29 -22,-14c-5,8 -3,9 7,4c12,-7 12,-6 1,7c-16,19 -50,20 -48,1c1,-7 8,-19 16,-26c10,-10 11,-9 5,2c-6,10 -4,12 4,6c17,-10 -78,-94 -99,-88c-10,3 -11,2 -3,-4c8,-6 3,-17 -17,-40c-16,-17 -31,-29 -34,-26c-3,4 -6,1 -6,-6c0,-7 -5,-9 -11,-6c-6,4 -10,1 -8,-6c4,-32 -2,-39 -30,-35c-24,3 -28,0 -23,-16c2,-10 8,-21 13,-24c5,-2 -1,-25 -13,-49c-12,-24 -25,-42 -29,-40c-4,3 -6,-3 -5,-13c1,-13 -6,-17 -27,-16c-15,1 -25,-1 -22,-4c2,-3 0,-11 -6,-19c-9,-10 -8,-13 2,-13c12,0 12,-2 0,-9c-9,-6 -10,-11 -2,-15c10,-6 15,6 12,26c0,4 6,5 14,1c11,-4 12,-9 5,-17c-5,-7 -13,-30 -18,-51c-4,-21 -13,-40 -20,-41c-7,-1 -8,0 -2,3c14,7 13,28 -2,41c-10,8 -13,1 -13,-28c-1,-21 3,-36 7,-34c4,3 8,1 8,-5c0,-5 -5,-13 -10,-16c-6,-3 -7,-17 -4,-31c4,-14 1,-31 -6,-39c-7,-9 -10,-18 -7,-22c3,-3 -1,-19 -9,-35c-9,-17 -11,-27 -5,-24c6,4 11,2 11,-3c0,-6 -4,-11 -10,-11c-5,0 -7,-8 -4,-17c5,-17 5,-17 -6,0c-6,9 -15,15 -21,12c-15,-10 -10,-23 11,-30c24,-8 26,-30 4,-39c-9,-4 -14,-13 -10,-21c3,-8 1,-15 -4,-15c-6,0 -10,5 -10,12c0,21 -13,-1 -15,-27c-2,-14 1,-25 7,-25c5,0 7,10 4,23c-3,12 -3,16 0,9c3,-6 9,-10 13,-8c4,3 7,-4 7,-15c0,-10 -5,-19 -11,-19c-5,0 -3,-4 5,-10c8,-5 11,-12 7,-16c-3,-4 -12,-2 -20,4c-10,8 -13,7 -13,-7c0,-10 7,-18 16,-17c11,1 16,-11 18,-47c2,-38 0,-47 -10,-41c-10,6 -10,4 1,-9c7,-9 11,-26 8,-36c-3,-11 1,-28 9,-38c16,-21 18,-43 4,-43c-5,0 -7,6 -4,13c3,8 -1,14 -8,14c-8,0 -14,-8 -14,-18c0,-10 3,-16 6,-14c3,2 12,0 20,-6c11,-6 11,-9 3,-10c-7,-1 -17,-2 -23,-3c-5,0 -14,-6 -21,-13c-9,-9 -7,-11 7,-9c11,2 22,-2 26,-8c5,-8 8,-7 8,2c0,6 4,12 8,12c4,0 8,-8 8,-19c0,-10 -5,-17 -12,-14c-6,2 -14,-3 -18,-12c-3,-10 -11,-13 -18,-9c-7,4 -9,3 -5,-1c10,-12 39,-16 32,-5c-3,5 4,8 15,7c21,-1 25,-17 21,-82c-1,-20 2,-26 8,-17c6,10 10,8 14,-9c4,-13 2,-28 -4,-34c-7,-7 -8,-4 -3,10c5,16 4,18 -6,8c-9,-8 -9,-16 -1,-30c6,-10 11,-12 11,-5c0,25 19,11 25,-20c4,-18 12,-39 17,-45c6,-7 7,-13 2,-13c-19,0 -31,16 -29,37c1,18 -2,20 -16,12c-22,-11 -22,-49 1,-41c13,5 13,3 0,-14c-9,-12 -9,-15 -1,-7c21,18 53,-3 74,-47c10,-21 29,-54 42,-74c19,-28 21,-35 9,-40c-9,-3 -12,-1 -9,4c3,6 1,10 -5,10c-6,0 -9,4 -5,9c3,5 0,13 -6,17c-8,4 -9,3 -5,-4c9,-15 -6,-16 -21,-1c-8,8 -16,8 -30,0c-16,-11 -16,-11 5,-6c15,4 24,1 28,-9c3,-9 10,-14 14,-11c4,3 10,-2 13,-9c3,-8 2,-16 -4,-18c-5,-2 1,-9 13,-17c21,-13 22,-13 10,1c-10,13 -10,17 4,22c10,4 22,1 28,-5c8,-9 7,-10 -3,-4c-9,5 -12,4 -7,-3c3,-6 -1,-18 -10,-26c-16,-17 -10,-20 28,-17c30,3 60,-19 55,-40c-3,-10 -2,-18 2,-17c15,3 40,-15 34,-25c-4,-6 0,-8 9,-4c10,3 25,-4 38,-18c13,-14 26,-22 31,-20c4,3 14,-1 22,-9c8,-8 17,-13 20,-10c2,3 7,-2 11,-11c4,-11 2,-14 -7,-9c-7,4 -9,3 -4,-2c5,-5 13,-10 18,-10c22,-3 22,-6 -1,-13c-14,-4 -25,-13 -25,-20c0,-16 32,-24 40,-11c3,5 -4,7 -15,5c-11,-2 -20,0 -20,6c0,5 9,9 19,9c27,0 36,17 19,38c-11,15 -11,15 2,6c8,-6 24,-10 35,-8c10,1 26,-3 34,-9c12,-9 13,-9 7,1c-4,6 -3,12 3,12c5,0 12,-6 15,-12c5,-10 7,-10 12,0c5,10 9,10 22,0c13,-11 15,-10 9,5c-4,11 -2,17 7,17c8,0 22,3 32,7c12,4 15,3 10,-5c-4,-7 -2,-12 4,-12c6,0 8,-4 5,-10c-3,-6 1,-7 9,-4c10,4 16,1 16,-7c0,-9 4,-7 11,4c6,10 8,21 5,24c-3,4 0,13 7,22c10,14 10,14 -5,3c-9,-8 -14,-20 -11,-28c4,-10 0,-12 -11,-8c-23,9 -20,31 7,40c12,5 25,7 30,6c4,-1 7,3 7,9c0,5 5,7 10,4c6,-4 4,-12 -5,-21c-8,-9 -15,-23 -14,-32c0,-14 2,-13 8,3c5,11 18,28 29,38c11,11 19,24 16,31c-6,15 26,18 43,4c7,-6 14,-4 19,3c4,7 3,9 -3,6c-6,-4 -17,1 -24,10c-8,9 -9,14 -3,11c5,-4 19,9 29,28c13,25 24,34 37,31c10,-3 18,-1 18,4c0,5 -4,9 -10,9c-16,0 0,27 23,38c14,7 16,11 7,11c-10,1 -8,6 7,16c13,9 20,22 17,30c-4,8 -1,15 6,15c6,0 9,-4 5,-9c-3,-5 -1,-12 5,-16c17,-10 11,-25 -7,-18c-9,4 -14,2 -10,-3c7,-12 -8,-38 -23,-40c-21,-3 -22,-4 -11,-18c10,-11 7,-19 -11,-37c-16,-15 -18,-20 -6,-16c9,3 19,3 21,-1c2,-4 2,-2 1,5c-2,6 4,14 12,17c22,9 26,7 18,-5c-4,-7 -7,-24 -8,-38c-1,-19 -6,-26 -20,-26c-11,0 -21,6 -24,13c-2,8 3,10 15,6c10,-3 7,1 -7,9c-14,9 -29,13 -35,9c-5,-3 -1,4 9,16c11,12 14,22 8,22c-14,0 -34,-35 -25,-44c3,-3 0,-6 -7,-6c-7,0 -10,-3 -7,-6c4,-4 13,-1 22,6c17,14 21,0 4,-17c-8,-8 -7,-11 2,-10c8,1 14,-2 14,-8c0,-5 -4,-9 -9,-7c-5,2 -4,-4 4,-12c10,-13 10,-19 0,-32c-21,-25 -47,-35 -47,-19c0,8 4,12 8,9c4,-2 10,0 14,6c3,5 -3,10 -14,10c-26,0 -34,-15 -22,-38c8,-16 5,-22 -17,-33c-15,-8 -30,-18 -35,-24c-9,-13 -4,26 6,43c10,15 30,5 21,-11c-4,-7 -3,-8 1,-4c16,14 13,34 -6,33c-10,-1 -17,4 -16,9c1,6 8,9 16,8c9,-1 10,2 2,10c-15,15 -41,-9 -36,-34c2,-10 -2,-19 -8,-19c-8,0 -8,-3 1,-9c10,-6 8,-10 -8,-14c-16,-4 -20,-2 -16,9c8,21 0,17 -17,-10c-16,-24 -7,-30 21,-12c7,4 16,6 19,3c2,-3 -10,-13 -28,-23c-36,-18 -189,-27 -189,-11c0,5 -6,7 -14,4c-8,-3 -20,0 -26,8c-6,7 -19,11 -29,8c-9,-2 -23,3 -30,11c-8,9 -20,16 -27,16c-8,0 -14,5 -14,10c0,6 -8,10 -17,10c-15,0 -16,2 -3,10c13,8 12,10 -3,10c-10,0 -16,4 -13,9c3,5 0,8 -7,7c-6,0 -12,4 -12,9c0,6 4,9 8,7c5,-1 6,2 2,8c-9,14 8,13 23,-2c7,-7 12,-9 12,-4c0,13 -24,32 -40,31c-8,-1 -14,-6 -12,-13c3,-17 -19,-15 -46,4c-22,15 -32,52 -10,38c7,-4 8,-3 4,4c-4,6 -13,9 -20,6c-15,-6 -98,95 -110,134c-8,23 -21,29 -31,12c-3,-5 -12,-7 -20,-3c-8,3 -15,0 -15,-5c0,-6 9,-9 20,-7c15,3 24,-3 29,-18c5,-12 7,-25 4,-29c-2,-5 1,-8 7,-8c16,0 33,-51 20,-64c-7,-7 -10,-5 -10,7c0,9 -3,17 -7,17c-5,0 -8,-16 -8,-34c0,-22 4,-31 10,-25c13,13 28,11 19,-3c-4,-7 -3,-8 5,-4c9,6 9,11 1,21c-8,10 -8,15 1,21c12,7 18,0 22,-23c0,-5 9,-17 19,-28c25,-26 33,-64 19,-78c-9,-9 -11,-5 -7,17c3,16 2,26 -1,22c-12,-12 -13,-45 -1,-52c20,-13 59,-13 51,-1c-4,7 5,1 20,-13c26,-24 36,-60 18,-60c-6,0 -8,9 -6,20c2,11 0,18 -5,15c-5,-3 -11,-1 -15,5c-5,8 -33,8 -55,0c-3,-2 -8,-2 -12,-1c-4,0 -5,-6 -1,-14c5,-14 7,-13 18,1c10,15 12,15 18,1c4,-10 13,-14 26,-10c16,4 19,1 16,-16c-4,-22 9,-29 20,-11c4,6 11,7 17,4c6,-4 5,-10 -3,-15c-10,-6 -10,-9 -2,-9c16,0 26,17 13,25c-5,3 -10,11 -10,17c0,6 10,-1 21,-16c12,-15 23,-25 26,-22c3,3 16,-7 29,-21c13,-14 24,-22 24,-18c0,4 7,2 15,-5c8,-7 12,-17 8,-24c-4,-6 1,-5 10,3c15,11 17,11 17,-2c0,-8 -7,-17 -15,-21c-8,-3 -14,-13 -14,-23c1,-16 2,-16 6,-1c2,9 13,20 24,23c11,4 16,11 13,17c-4,6 0,6 13,-1c11,-6 23,-7 27,-4c3,3 6,1 6,-6c0,-7 5,-9 11,-6c14,9 61,-3 54,-14c-2,-5 2,-11 10,-14c9,-4 12,-1 8,9c-3,7 -1,14 5,14c5,0 12,-6 15,-14c3,-8 15,-14 26,-13c11,0 18,5 15,9c-3,4 -11,5 -19,1c-8,-3 -15,-1 -15,5c0,12 99,32 106,20c3,-4 10,-6 15,-3c5,4 9,1 9,-5c0,-7 -7,-10 -15,-6c-8,3 -15,0 -15,-5c0,-6 9,-9 20,-6c11,3 23,1 26,-4c3,-5 11,-9 17,-9c7,0 4,5 -5,11c-27,15 -22,32 5,19c20,-10 20,-10 5,3c-23,18 -23,24 5,38c19,10 21,10 12,-2c-5,-8 -1,-5 10,7c11,12 30,20 43,19c12,-1 27,4 34,12c9,11 7,12 -8,6c-17,-6 -17,-5 -5,10c7,9 16,15 20,12c4,-2 15,7 25,21c21,26 49,33 40,9c-4,-8 -1,-15 6,-15c6,0 8,5 5,10c-3,6 4,14 17,19c22,9 22,10 -7,11c-22,0 -26,3 -15,9c8,6 18,7 22,5c4,-3 5,1 2,9c-6,18 21,41 37,31c9,-5 10,-2 6,10c-4,10 -3,15 3,11c16,-10 11,-29 -10,-43c-17,-10 -18,-16 -10,-33c6,-11 15,-17 21,-14c5,4 9,1 9,-6c0,-7 3,-9 6,-6c4,4 2,13 -4,20c-7,8 -8,17 -4,21c4,4 7,31 8,59c0,28 5,52 11,54c5,2 19,11 29,19c18,14 17,14 -6,3c-25,-12 -25,-12 -6,9c10,12 24,19 30,15c6,-4 6,0 -1,9c-16,19 -4,32 15,15c13,-10 14,-9 4,9c-13,25 0,49 23,41c10,-4 14,-3 10,4c-4,5 -1,18 6,27c11,14 10,14 -8,-1c-21,-18 -21,-18 -16,2c3,12 10,21 15,21c5,0 6,5 3,10c-3,6 1,10 9,10c9,0 16,-4 16,-10c0,-5 8,-10 17,-10c14,0 13,3 -5,16c-12,8 -22,22 -22,31c0,12 3,12 18,-4c9,-10 13,-14 9,-7c-5,7 -2,14 5,17c11,4 10,6 0,6c-7,1 -10,6 -6,13c4,7 3,8 -4,4c-7,-4 -12,-2 -12,3c0,6 5,11 11,11c5,0 7,5 4,10c-3,6 -2,10 2,10c5,0 9,12 9,27c-1,21 5,29 24,34c24,7 25,7 2,8c-14,1 -21,5 -16,12c3,6 15,9 25,6c11,-3 19,-1 19,4c0,5 -9,9 -20,9c-11,0 -20,4 -20,10c0,5 8,6 18,3c15,-6 15,-5 4,10c-8,9 -10,21 -6,29c5,7 9,25 10,41c1,15 3,30 4,35c1,4 4,16 5,27c1,11 3,26 3,33c1,6 7,12 13,12c8,0 7,-6 -2,-17c-11,-15 -11,-16 1,-5c15,13 22,85 8,76c-5,-3 -6,-10 -3,-15c4,-5 1,-9 -4,-9c-14,0 -9,33 7,53c10,12 10,16 0,20c-10,4 -10,8 2,16c11,8 11,11 2,11c-9,0 -12,23 -10,95c2,52 -1,95 -5,95c-5,0 -7,10 -5,23c2,12 9,21 16,19c8,-1 11,2 7,8c-3,6 -10,8 -15,5c-8,-5 -15,27 -25,103c-3,30 -2,32 22,28c14,-3 22,-2 18,2c-7,7 -12,8 -40,11c-11,1 -14,9 -10,32c3,17 2,28 -3,25c-12,-7 -31,62 -27,96c2,20 -1,25 -11,21c-10,-4 -12,0 -7,13c3,11 10,21 14,24c4,3 0,12 -9,20c-14,13 -15,12 -9,-2c4,-12 2,-15 -9,-11c-8,3 -13,8 -10,11c3,2 -4,16 -15,30c-17,22 -18,27 -5,46c15,21 19,22 46,11c11,-4 16,1 17,17c0,13 -1,17 -4,11c-3,-7 -9,-13 -15,-13c-6,0 -8,6 -5,14c3,7 0,19 -6,25c-7,7 -13,15 -13,19c-6,28 -18,52 -27,52c-6,0 -8,2 -5,5c11,12 37,-7 30,-23c-5,-14 -4,-15 10,-2c9,8 12,16 7,18c-5,2 -5,12 1,22c7,13 7,21 -2,26c-7,5 -8,3 -3,-6c6,-9 2,-10 -16,-5c-23,7 -24,7 -4,-9c21,-16 13,-20 -19,-7c-17,7 -17,8 -2,24c10,9 14,17 9,17c-5,0 -15,-6 -22,-12c-10,-11 -11,-9 -5,6c6,15 4,17 -7,11c-11,-7 -11,-5 1,10c9,11 10,16 2,11c-14,-8 -46,19 -38,33c4,5 17,8 31,7c13,-2 22,1 19,5c-3,5 -17,7 -31,4c-27,-4 -41,6 -92,71c-12,16 -28,29 -34,29c-7,0 -12,11 -12,25c0,21 -4,25 -27,22c-16,-1 -28,2 -28,8c0,5 -6,10 -14,10c-7,0 -21,10 -30,23c-9,12 -14,16 -11,10c8,-17 -6,-16 -31,1c-11,8 -36,16 -55,19c-19,2 -33,9 -31,16c2,9 -3,9 -17,1c-26,-13 -44,-13 -35,1c5,8 1,8 -14,0c-25,-13 -35,-14 -28,-3c3,5 -1,9 -8,9c-9,0 -12,-7 -8,-16c3,-9 2,-13 -2,-9c-4,3 -21,2 -36,-4c-20,-7 -34,-6 -47,2c-16,10 -16,10 3,5c25,-7 54,3 54,18c0,7 -4,7 -12,-1c-13,-13 -42,-17 -34,-4c3,5 -1,9 -9,9c-8,0 -15,-4 -15,-9c0,-5 -6,-6 -12,-1c-17,10 -58,11 -52,1c8,-12 -11,-9 -24,4c-9,9 -12,9 -12,1zm343,-118c20,2 37,-1 37,-7c0,-5 -4,-6 -10,-3c-5,3 -10,1 -10,-5c0,-6 -5,-8 -12,-4c-7,4 -8,3 -4,-4c5,-8 13,-9 25,-2c10,5 22,6 26,2c5,-4 5,-1 1,6c-4,6 -2,12 3,12c6,0 11,-8 11,-17c0,-12 3,-14 8,-6c9,15 57,-5 57,-24c0,-6 4,-15 9,-20c5,-5 6,-3 2,5c-4,6 -3,12 2,12c6,0 13,-11 16,-25c4,-16 11,-23 18,-19c9,6 9,9 0,12c-7,2 -12,8 -12,14c0,6 6,6 15,-2c8,-7 12,-16 9,-21c-3,-5 2,-9 10,-9c24,0 19,-15 -9,-28c-34,-16 -61,-15 -93,2c-43,23 -83,32 -134,31l-46,-1l14,28c12,23 12,31 2,48c-15,23 -18,24 -38,9c-13,-9 -12,-10 2,-5c26,8 30,-8 7,-33c-12,-12 -18,-25 -14,-29c4,-4 10,-2 12,4c7,21 32,49 33,37c0,-25 -55,-72 -88,-76c-18,-1 -38,-9 -44,-17c-8,-12 -9,-12 -4,2c3,12 1,15 -10,11c-9,-3 -13,-12 -9,-21c5,-13 3,-13 -11,-1c-15,12 -14,15 7,32c26,21 31,38 14,49c-6,5 -5,8 3,8c7,0 10,5 7,10c-11,18 -21,11 -21,-15c0,-14 5,-25 11,-25c5,0 3,-5 -5,-10c-8,-5 -23,-7 -34,-4c-16,5 -18,2 -12,-21c4,-15 3,-24 -2,-21c-5,3 -8,-6 -6,-20c3,-28 -60,-109 -77,-98c-8,5 -13,-9 -10,-28c0,-5 -6,-8 -15,-8c-8,0 -13,-4 -10,-9c8,-12 -20,-34 -33,-27c-5,4 -13,2 -16,-4c-4,-6 -3,-10 2,-9c20,4 34,-2 28,-12c-4,-6 -14,-8 -22,-4c-13,4 -14,3 -4,-9c8,-10 9,-16 1,-21c-6,-3 -8,-10 -6,-13c6,-10 -21,-58 -30,-54c-5,2 -10,-2 -13,-9c-2,-6 1,-9 6,-6c6,4 8,-4 5,-18c-2,-14 -7,-25 -11,-25c-3,0 -7,-12 -8,-26c-1,-33 -22,-47 -43,-31c-13,10 -13,10 -1,-5c7,-10 11,-24 8,-32c-4,-10 -1,-13 7,-10c11,4 11,-6 4,-53c-5,-32 -8,-122 -6,-200c2,-79 2,-143 1,-143c-1,0 -9,-3 -18,-6c-10,-4 -15,-2 -13,7c2,10 -5,13 -23,11c-34,-3 -36,6 -32,178c4,188 3,184 38,191l30,7l-29,1c-28,1 -28,2 -22,39c4,20 8,42 10,47c2,6 7,25 11,43c4,17 13,32 19,32c7,0 21,7 32,16c18,15 18,15 -3,5c-27,-14 -41,3 -16,18c10,6 13,11 6,11c-13,0 6,60 20,60c4,0 5,5 1,12c-4,6 -3,8 3,5c12,-8 39,20 29,30c-3,3 -6,1 -6,-5c0,-7 -5,-12 -12,-12c-6,0 -4,7 5,18c10,10 17,26 17,35c0,16 23,25 67,25c24,1 25,-18 1,-41c-13,-13 -19,-14 -33,-3c-11,8 -15,18 -10,26c5,8 4,11 -3,6c-6,-3 -10,-15 -9,-26c1,-10 3,-17 6,-15c2,3 15,-2 29,-11c13,-9 22,-12 18,-6c-3,5 3,17 14,27c11,10 17,22 14,26c-5,8 10,13 29,10c15,-2 6,15 -15,28c-21,13 -22,13 -9,-2c7,-10 9,-17 3,-17c-21,0 -31,25 -16,44c8,11 14,14 14,8c0,-7 5,-12 12,-12c9,0 9,3 1,11c-6,6 -9,17 -7,24c3,7 1,16 -5,20c-7,3 -8,0 -5,-9c4,-9 -1,-18 -10,-22c-9,-3 -14,-10 -11,-14c7,-12 -32,-43 -47,-37c-8,3 -6,6 5,6c10,1 16,5 13,10c-3,4 6,18 19,31c13,13 22,26 20,30c-2,4 10,20 27,36c17,16 29,24 25,19c-3,-6 7,-10 22,-10c25,-1 28,2 25,28c-2,17 0,26 6,22c6,-4 13,1 16,9c3,8 22,21 42,27c53,18 62,20 111,25c24,2 47,6 49,9c3,3 8,1 11,-3c3,-5 23,-8 44,-7zm-36,-438c-11,18 71,8 93,-12c9,-8 23,-15 31,-15c12,0 11,-2 -1,-10c-22,-14 -30,-12 -31,8c0,11 -2,12 -6,4c-3,-7 0,-19 7,-27c9,-10 7,-16 -7,-24c-16,-9 -16,-12 -3,-21c8,-5 11,-10 7,-10c-5,0 -5,-5 -2,-10c4,-6 11,-7 17,-4c6,4 6,10 -1,17c-18,18 -13,31 6,16c11,-10 14,-10 9,-1c-4,7 -2,12 5,12c8,0 8,4 -1,15c-9,10 -9,15 -1,15c11,0 14,-9 14,-42c0,-10 4,-15 8,-12c5,3 9,0 9,-6c0,-6 5,-8 11,-4c7,4 7,9 1,13c-5,3 -13,17 -17,31c-7,22 -6,23 8,11c9,-7 14,-18 10,-25c-3,-6 -3,-8 2,-4c10,9 35,-10 35,-26c0,-7 -4,-6 -9,2c-7,11 -9,11 -14,-1c-4,-11 1,-14 17,-13c14,2 28,-5 35,-17c10,-15 10,-18 -1,-12c-7,4 -6,1 2,-7c24,-21 41,-66 28,-74c-7,-5 -8,-3 -3,6c5,8 4,11 -2,7c-6,-4 -10,1 -9,10c0,9 -6,18 -14,20c-12,4 -12,3 -1,-5c10,-7 10,-14 2,-29c-9,-18 -7,-20 18,-17c29,3 48,-18 54,-61c1,-11 6,-26 10,-32c5,-8 4,-13 -2,-13c-11,0 -15,15 -11,35c1,6 -5,4 -12,-3c-11,-11 -8,-17 16,-37c23,-18 29,-32 30,-64c0,-23 3,-41 6,-41c3,0 6,-9 7,-20c1,-11 -4,-20 -10,-20c-7,0 -6,-4 3,-10c10,-6 11,-10 3,-10c-7,0 -13,-4 -13,-10c0,-5 8,-7 18,-4c16,5 16,5 -1,-6c-9,-6 -22,-8 -29,-4c-7,4 -8,3 -4,-4c4,-7 2,-12 -3,-12c-10,0 -13,7 -10,28c1,4 4,6 8,5c4,-1 8,4 8,12c0,10 -5,10 -23,-3c-14,-11 -18,-19 -11,-24c6,-4 8,-10 4,-15c-9,-8 -28,17 -21,28c2,4 -1,21 -7,38c-8,24 -8,35 1,46c10,12 9,15 -6,15c-14,0 -15,3 -6,12c8,8 15,8 26,-1c12,-10 15,-9 13,7c-1,13 -6,18 -16,14c-9,-3 -12,-1 -7,6c4,7 2,12 -3,12c-6,0 -11,-8 -11,-17c0,-13 -3,-14 -12,-5c-8,8 -8,15 1,26c7,8 10,19 7,25c-3,5 -1,11 6,13c8,3 6,7 -5,11c-9,3 -19,1 -23,-5c-4,-6 -3,-8 2,-5c5,3 10,-3 10,-14c0,-28 -10,-23 -23,11c-9,23 -8,28 0,23c7,-4 6,1 -2,10c-12,15 -11,17 8,17c18,0 20,2 9,14c-7,8 -15,10 -17,4c-1,-5 -12,-2 -22,8c-10,9 -16,21 -13,25c3,5 -1,12 -10,15c-8,3 -12,12 -9,20c3,8 1,14 -4,12c-5,-2 -28,18 -50,44c-23,26 -44,44 -47,41c-3,-4 -16,2 -28,13c-14,13 -19,14 -14,4c4,-8 1,-7 -8,3c-8,11 -12,26 -9,35c4,14 3,14 -5,3c-6,-8 -9,-19 -8,-25c2,-6 1,-8 -1,-4c-2,3 -16,4 -29,2c-16,-3 -23,-1 -19,6c3,5 -3,10 -14,10c-11,0 -24,-7 -29,-16c-6,-11 -17,-15 -31,-11c-11,3 -19,1 -15,-4c3,-5 3,-9 0,-9c-2,0 -11,-3 -20,-6c-9,-3 -16,-1 -16,6c0,6 4,9 9,6c5,-3 11,4 14,15c5,18 8,19 27,9c15,-8 20,-8 16,-1c-4,6 0,11 9,11c9,0 13,5 10,10c-4,6 -12,8 -18,4c-7,-3 -3,1 7,10c10,8 22,13 26,11c4,-3 13,2 20,10c18,22 32,18 25,-6c-5,-15 -4,-19 4,-15c6,4 11,16 11,28c0,18 2,19 17,7c10,-9 14,-9 10,-2zm361,-667c-1,-86 -4,-110 -14,-110c-8,0 -14,-4 -14,-10c0,-5 7,-7 15,-4c8,4 15,1 15,-5c0,-6 -7,-11 -15,-11c-18,0 -19,-12 -3,-28c10,-10 10,-17 0,-33c-7,-11 -10,-30 -6,-41c4,-14 2,-18 -5,-14c-7,4 -9,1 -5,-7c3,-8 1,-18 -5,-22c-6,-3 -11,-1 -11,4c0,6 -4,11 -10,11c-5,0 -7,-7 -3,-16c5,-14 3,-14 -14,-3c-11,6 -19,19 -18,28c1,9 0,10 -2,4c-9,-27 -21,-11 -13,17c5,17 9,34 10,38c1,4 4,9 7,12c2,3 4,0 3,-5c-5,-21 0,-36 10,-30c5,3 6,13 3,22c-5,12 -3,14 7,8c9,-5 11,-4 6,3c-4,7 -13,12 -21,12c-8,0 -13,9 -12,20c1,11 5,20 9,20c4,0 5,9 3,20c-4,21 9,27 20,10c3,-5 12,-10 18,-10c7,0 4,5 -6,11c-9,6 -14,15 -11,21c5,7 2,9 -9,5c-13,-5 -15,2 -14,43l1,49l22,-37c12,-20 20,-41 17,-46c-4,-5 -1,-6 6,-2c9,6 8,14 -3,32c-19,28 -20,38 -4,28c7,-4 8,-3 4,5c-4,6 -12,9 -17,6c-5,-3 -6,1 -3,9c4,11 0,16 -12,16c-18,1 -18,1 -1,11c19,11 23,29 6,29c-5,0 -7,-4 -4,-10c3,-5 1,-10 -4,-10c-17,0 -13,32 7,46c16,13 16,14 -3,8c-16,-5 -17,-4 -5,4c8,6 18,8 22,6c4,-3 16,-1 25,5c10,5 21,7 24,5c4,-2 7,-54 7,-114zm-874,92c-6,-4 -4,-13 8,-24c16,-16 18,-16 18,-2c0,23 24,11 28,-13c2,-14 -4,-22 -17,-26c-11,-3 -22,-2 -24,2c-2,3 -2,0 -1,-7c2,-7 -3,-15 -11,-18c-17,-7 -14,-39 5,-57c12,-10 12,-9 1,6c-11,14 -11,17 0,18c10,0 10,2 2,6c-20,8 23,47 43,39c9,-4 14,-9 11,-13c-4,-3 -2,-12 5,-20c9,-11 8,-18 -5,-31c-11,-10 -17,-12 -17,-4c0,7 5,12 11,12c5,0 7,4 4,10c-4,6 -11,5 -20,-3c-8,-7 -10,-16 -4,-23c5,-6 5,-14 1,-19c-4,-4 6,1 23,11c16,10 26,14 22,7c-4,-6 -3,-14 3,-18c6,-4 7,-11 4,-17c-4,-6 -1,-14 5,-18c7,-4 14,-16 16,-26c2,-10 4,-20 4,-21c1,-2 0,-4 -1,-5c-1,-2 9,-15 22,-30c39,-41 55,-62 52,-66c-2,-2 14,-13 35,-24c21,-11 48,-29 61,-41c16,-15 22,-17 22,-6c0,8 3,10 8,4c4,-5 25,-10 47,-9c22,0 45,-3 52,-8c7,-6 14,-4 19,3c5,8 3,9 -6,4c-8,-5 -11,-4 -6,3c3,6 15,9 26,7c11,-2 20,0 20,4c0,5 9,11 20,14c15,4 12,-2 -13,-27c-17,-17 -41,-31 -51,-31c-11,0 -21,-7 -23,-15c-4,-13 -3,-13 6,0c8,11 11,11 11,2c0,-7 -6,-14 -12,-16c-7,-2 -22,-8 -33,-12c-11,-4 -27,-9 -35,-10c-8,-1 -23,-5 -32,-9c-11,-4 -18,-3 -18,5c0,7 -8,9 -20,5c-11,-4 -20,-2 -20,4c0,6 -9,11 -20,11c-19,0 -20,3 -11,49c1,2 7,-2 15,-8c9,-8 16,-8 20,-2c4,5 -3,12 -14,16c-11,4 -17,11 -14,17c4,7 2,8 -5,4c-6,-4 -9,-11 -6,-16c3,-5 1,-11 -4,-15c-12,-7 -81,20 -81,32c0,5 -11,21 -25,36c-14,15 -23,27 -20,27c3,0 -4,9 -15,20c-12,12 -18,25 -15,30c3,5 1,11 -5,15c-6,4 -8,11 -5,16c4,5 0,9 -7,9c-9,0 -9,3 2,10c13,8 13,10 -1,10c-27,0 -30,28 -6,45c25,18 15,20 -16,4c-12,-7 -19,-8 -15,-4c4,4 0,25 -9,47c-13,32 -14,45 -5,59c9,14 9,17 -2,13c-14,-5 -16,22 -3,43c4,6 3,14 -2,17c-5,4 -12,0 -14,-6c-4,-8 -6,-7 -6,4c-1,15 14,24 44,27c6,0 6,-2 -1,-7zm783,-409c9,-30 8,-41 -4,-60c-16,-25 -11,-53 9,-52c10,0 10,2 1,6c-7,2 -13,9 -13,14c0,6 5,7 11,3c8,-4 9,1 4,16c-6,19 -4,22 9,17c15,-6 15,-3 1,30c-21,50 -19,63 6,28c16,-24 19,-26 14,-7c-5,17 -2,22 12,22c10,0 14,-4 8,-8c-5,-4 -11,-14 -12,-22c-4,-33 -13,-63 -23,-74c-5,-7 -7,-15 -4,-19c3,-3 -3,-10 -14,-16c-16,-8 -22,-7 -28,7c-4,9 -6,20 -6,25c1,4 -5,7 -14,7c-13,0 -12,-5 6,-30c14,-19 26,-27 38,-24c13,5 14,4 3,-4c-8,-6 -10,-15 -6,-22c5,-8 4,-11 -2,-7c-6,4 -19,0 -29,-9c-18,-14 -18,-15 6,-10c14,3 19,3 12,0c-6,-3 -10,-9 -7,-14c3,-5 -1,-14 -8,-22c-7,-7 -16,-21 -20,-30c-4,-12 -16,-17 -36,-15c-16,1 -27,4 -25,6c2,2 -1,10 -8,18c-8,11 -7,12 6,7c9,-3 16,-1 16,5c0,5 9,19 21,30c14,12 18,24 13,33c-20,32 -11,98 13,98c11,0 13,4 5,13c-9,12 1,57 13,57c4,0 3,-5 -1,-12c-5,-7 -3,-8 5,-3c9,5 9,11 3,17c-11,11 -5,38 7,38c3,0 11,-17 18,-37z"/>
   <path id="svg_3" d="m535.000015,10143.444458c8,-11 -21,-18 -34,-8c-8,6 -8,5 -1,-3c6,-8 6,-16 -2,-25c-8,-10 -8,-17 1,-26c10,-9 11,-8 6,4c-4,11 2,22 16,33c23,15 44,13 33,-5c-3,-5 -10,-6 -16,-3c-7,4 -8,2 -4,-5c5,-8 13,-7 29,4c25,17 37,19 37,5c0,-5 -3,-9 -7,-8c-5,1 -18,-3 -30,-10c-13,-7 -23,-10 -23,-6c0,4 -8,0 -17,-8c-10,-9 -26,-14 -35,-13c-10,2 -21,-2 -25,-7c-4,-7 -1,-8 8,-3c12,8 12,6 0,-8c-15,-19 -36,-23 -25,-5c4,6 3,8 -4,4c-6,-3 -13,-2 -16,3c-4,5 1,12 9,14c12,4 12,5 -1,3c-10,0 -18,-9 -20,-19c-1,-9 2,-15 7,-11c20,12 7,-19 -17,-41c-30,-27 -50,-32 -57,-12c-4,9 -6,9 -6,0c-1,-6 4,-15 9,-18c11,-7 -36,-75 -52,-75c-5,0 -7,4 -4,8c2,4 -4,9 -15,9c-10,1 -19,-3 -19,-9c0,-6 3,-8 7,-5c6,7 33,-11 33,-22c0,-4 -10,-8 -22,-8c-18,-2 -20,0 -8,7c13,8 12,10 -2,10c-10,0 -18,-4 -18,-9c0,-14 26,-31 36,-23c4,4 2,-1 -5,-10c-14,-19 -26,-25 -16,-8c3,6 1,10 -4,10c-14,0 -14,-17 -1,-25c6,-4 6,-12 0,-23c-5,-9 -12,-30 -15,-47c-6,-29 -7,-29 -22,-10c-15,20 -15,20 -8,-2c3,-13 1,-31 -5,-40c-9,-15 -10,-14 -5,7c5,20 4,22 -5,10c-6,-8 -16,-24 -22,-35c-10,-18 -10,-19 5,-6c10,7 17,10 17,6c0,-4 6,-2 14,4c12,10 14,6 14,-24c0,-19 -4,-32 -9,-29c-13,8 -11,-10 3,-24c9,-9 9,-12 0,-12c-7,0 -17,10 -22,23l-9,22l0,-23c-1,-13 -4,-21 -8,-19c-5,3 -9,-16 -9,-41c-2,-46 -2,-46 11,-17c6,17 10,36 7,44c-4,11 -1,12 13,4c19,-11 31,-63 14,-63c-5,0 -9,-5 -9,-11c0,-5 4,-8 9,-5c10,6 24,-52 15,-65c-3,-5 0,-9 5,-9c6,0 11,-7 11,-15c0,-32 98,-165 120,-165c6,0 10,-7 10,-16c0,-9 5,-12 12,-8c6,4 8,3 5,-3c-4,-6 0,-14 9,-17c9,-3 12,-2 8,5c-3,6 3,5 15,-3c27,-17 27,-27 -1,-21c-21,4 -21,3 -5,-7c13,-9 22,-9 32,0c10,8 15,8 21,-1c5,-8 3,-9 -6,-4c-8,5 -11,4 -6,-3c4,-6 13,-9 21,-5c9,3 21,0 29,-6c7,-6 17,-7 21,-3c5,4 5,1 1,-6c-5,-8 -3,-13 5,-11c26,3 39,-1 39,-12c0,-8 -4,-8 -13,-1c-8,7 -18,7 -27,2c-8,-6 -10,-10 -5,-11c6,0 26,-2 45,-4c24,-3 30,-1 20,5c-8,6 -10,10 -4,10c6,0 14,-3 18,-7c4,-4 19,-9 34,-11c14,-2 32,-7 38,-13c6,-5 13,-7 16,-4c3,3 10,-1 16,-8c9,-10 8,-14 -3,-14c-8,0 -12,4 -9,9c3,4 -2,5 -10,2c-9,-3 -16,-1 -16,5c0,6 -5,11 -12,11c-9,0 -9,-3 -1,-11c6,-6 9,-18 6,-26c-5,-12 -7,-12 -14,-1c-6,9 -8,6 -6,-9c1,-17 5,-20 19,-12c10,5 18,6 18,2c0,-4 11,-9 25,-9c30,-2 34,11 4,13c-12,1 -26,6 -32,12c-6,6 5,9 32,7c32,-2 38,0 30,10c-8,9 -5,11 10,7c12,-3 18,-10 15,-15c-3,-5 0,-9 7,-7c26,3 40,-1 35,-10c-3,-4 -16,-6 -30,-4c-13,3 -26,1 -29,-4c-8,-12 45,-8 72,6c21,12 23,11 18,-3c-7,-17 8,-22 18,-6c3,5 12,7 20,4c8,-4 12,-11 8,-18c-4,-6 0,-6 9,2c14,11 18,9 29,-17c8,-19 18,-27 28,-23c8,3 12,1 8,-5c-4,-6 1,-17 11,-24c15,-12 16,-12 6,1c-6,8 -10,23 -9,32c2,10 -2,15 -10,12c-7,-3 -15,2 -19,11c-4,11 -2,14 7,8c6,-4 18,-8 26,-10c25,-3 37,-23 21,-33c-13,-8 -12,-10 3,-10c12,0 16,-5 11,-12c-5,-10 -4,-10 6,-1c7,6 20,9 29,6c13,-4 14,-3 1,5c-8,6 -18,8 -22,6c-4,-3 -8,0 -8,5c0,14 43,7 48,-7c2,-7 8,-10 13,-7c11,8 60,-25 54,-35c-3,-5 4,-11 15,-15c11,-4 20,-15 20,-26c0,-13 4,-18 13,-13c6,4 9,4 5,-1c-4,-4 -2,-15 5,-23c10,-13 9,-15 -7,-8c-19,7 -19,6 -3,-12c13,-14 16,-28 12,-48c-4,-16 -7,-35 -7,-42c-1,-13 -73,-77 -87,-77c-3,0 -10,-3 -16,-6c-5,-4 -22,-9 -37,-13c-21,-5 -28,-3 -28,9c0,8 -4,15 -9,15c-5,0 -16,2 -24,5c-8,4 -14,0 -14,-8c0,-9 7,-12 19,-9c13,3 17,0 13,-10c-8,-19 -105,-24 -116,-6c-7,10 -9,10 -9,1c0,-7 -5,-13 -11,-13c-6,0 -8,8 -5,18c5,15 4,15 -8,-2c-10,-11 -19,-15 -28,-10c-7,5 -24,9 -37,9c-14,1 -26,6 -28,12c-6,16 29,26 39,11c5,-9 8,-10 8,-1c0,19 -18,25 -40,13c-17,-9 -20,-8 -20,8c0,13 -7,18 -29,17c-19,0 -27,-4 -24,-12c3,-7 12,-13 20,-13c8,0 11,5 8,13c-4,6 1,3 9,-7c20,-25 20,-33 1,-33c-8,0 -15,4 -15,8c0,4 -10,5 -22,1c-14,-3 -19,-1 -14,6c4,7 2,20 -3,29c-6,11 -11,13 -11,5c0,-8 -5,-10 -12,-6c-9,5 -9,2 1,-9c19,-23 -1,-21 -32,3c-28,22 -42,26 -31,9c3,-6 -5,-4 -18,5c-14,9 -28,13 -31,9c-4,-3 -7,-1 -7,5c0,5 6,13 13,15c7,4 6,6 -5,6c-9,1 -19,-5 -21,-11c-3,-8 -6,-6 -6,5c-1,9 4,17 11,17c6,0 8,3 5,6c-4,4 -14,1 -23,-6c-13,-11 -17,-11 -24,-1c-4,8 -13,10 -19,7c-6,-4 -11,-3 -11,1c0,5 -9,14 -21,21c-17,11 -20,11 -14,0c3,-7 -3,-2 -14,11c-12,12 -18,27 -15,32c3,5 -2,6 -11,2c-13,-5 -14,-7 -3,-14c7,-5 9,-9 4,-9c-4,0 -26,14 -48,32c-41,32 -74,42 -84,26c-3,-5 -2,-8 3,-7c22,4 24,-3 8,-21c-10,-11 -13,-20 -7,-20c7,0 12,4 12,9c0,5 7,11 15,14c12,5 12,2 3,-18c-6,-13 -16,-22 -21,-18c-6,4 -8,0 -5,-8c4,-10 -1,-15 -13,-16c-10,-1 -19,3 -19,8c0,6 -5,7 -11,3c-8,-4 -7,-9 2,-15c10,-6 11,-9 2,-9c-7,0 -13,-5 -13,-12c0,-9 3,-9 12,0c7,7 19,12 27,12c13,0 13,-2 3,-9c-8,-4 -13,-11 -11,-15c4,-11 -55,-126 -64,-126c-5,0 -6,4 -3,8c3,5 -8,8 -24,8c-16,0 -27,-3 -24,-7c3,-5 -4,-17 -16,-29c-11,-11 -19,-28 -19,-37c1,-17 2,-17 6,0c2,9 9,15 14,12c5,-3 6,1 3,9c-7,19 12,22 20,4c4,-9 5,-8 5,2c-2,29 1,40 12,40c5,0 7,-5 3,-12c-4,-6 -3,-8 4,-4c6,3 13,2 17,-4c3,-5 -1,-10 -9,-10c-9,0 -16,-5 -16,-11c0,-5 5,-7 10,-4c6,3 10,4 10,2c0,-3 -15,-14 -32,-26c-24,-15 -28,-21 -15,-21c10,0 16,-4 12,-9c-3,-5 0,-13 6,-17c8,-4 9,-3 5,4c-8,13 16,17 28,5c4,-5 12,-9 17,-9c20,-3 21,-4 11,-17c-8,-10 -6,-13 9,-14c11,-1 17,3 13,8c-3,6 3,5 15,-2c12,-8 19,-22 17,-34c-2,-11 4,-26 13,-33c14,-12 14,-13 -4,-7c-14,4 -17,3 -9,-5c11,-11 47,-3 40,9c-3,4 4,13 16,20c16,10 18,10 12,0c-5,-9 -2,-10 9,-6c10,3 17,2 17,-3c0,-6 7,-10 16,-10c8,0 13,-4 10,-9c-4,-5 2,-7 12,-5c34,9 66,-11 67,-41c0,-16 6,-30 13,-32c6,-3 12,3 12,12c0,10 5,13 12,9c6,-4 8,-3 4,4c-3,6 -2,13 3,16c18,12 23,-15 6,-34c-16,-18 -15,-18 11,-15c15,1 33,11 41,21c7,9 16,15 19,11c4,-4 2,-12 -4,-20c-8,-10 -6,-13 9,-14c11,-1 17,3 13,9c-4,6 1,8 16,3c15,-5 20,-3 16,3c-4,8 4,8 26,0c18,-5 76,-12 128,-14c52,-3 105,-10 118,-16c17,-9 25,-9 30,-1c4,7 49,13 114,15c58,2 104,6 102,9c-8,13 44,15 61,3c21,-15 42,-9 42,13c0,14 -1,14 -12,0c-7,-9 -16,-12 -24,-8c-9,6 -10,11 -2,15c6,4 11,4 11,1c0,-3 10,1 22,9c19,14 23,14 35,-2c13,-15 14,-15 9,0c-4,15 6,25 28,26c5,0 12,6 16,12c5,8 10,8 14,2c3,-5 -1,-15 -9,-22c-11,-9 -15,-9 -15,-1c0,7 -5,9 -11,5c-8,-4 -7,-9 2,-15c11,-7 11,-9 -1,-9c-13,0 -13,-1 0,-10c13,-9 13,-10 0,-10c-12,-1 -11,-3 3,-11c27,-16 57,-2 55,26c-1,13 -6,21 -10,19c-4,-3 -5,-11 -2,-19c4,-10 0,-12 -17,-8c-22,6 -22,7 11,34c18,16 37,26 42,23c4,-3 8,-1 8,5c0,5 12,14 28,20c15,6 18,9 7,7c-41,-8 -50,-11 -61,-25c-7,-9 -13,-10 -17,-4c-6,10 14,25 36,27c4,1 8,5 10,11c1,5 19,25 40,44c35,32 39,33 56,17c23,-21 26,-20 28,6c2,17 0,19 -7,8c-5,-8 -11,-12 -15,-9c-7,8 35,60 44,55c4,-3 7,10 7,29c0,18 -5,31 -10,28c-5,-4 -6,-1 -2,5c10,16 22,15 39,-3c13,-13 16,-12 22,2c3,10 3,14 -1,11c-11,-11 -42,10 -40,27c3,24 14,29 33,14c15,-12 16,-12 8,1c-6,8 -10,22 -10,30c0,8 -3,20 -7,25c-3,6 -4,33 -2,60c2,28 4,58 5,68c0,9 4,15 9,12c6,-3 7,1 4,9c-3,9 -10,14 -14,11c-4,-2 -7,11 -6,30c0,19 7,37 14,40c6,2 12,10 12,17c0,10 -2,10 -9,0c-6,-10 -10,-10 -21,3c-7,8 -10,18 -7,22c4,3 -3,22 -15,41c-12,20 -16,32 -10,28c7,-4 12,-3 12,2c0,5 -9,12 -21,15c-12,3 -18,10 -15,15c7,12 -111,131 -141,143c-18,7 -22,15 -19,38c2,17 -1,28 -6,25c-5,-3 -7,-12 -4,-20c3,-7 1,-16 -4,-19c-6,-4 -10,1 -10,9c0,9 -5,16 -11,16c-5,0 -7,-4 -4,-10c4,-6 -1,-7 -11,-3c-14,5 -12,8 11,20c15,8 25,17 22,19c-2,2 -17,-2 -33,-10c-25,-14 -30,-14 -45,0c-9,8 -23,14 -31,13c-22,-4 -48,12 -41,25c4,6 -1,5 -10,-3c-9,-7 -17,-9 -17,-4c0,5 -10,9 -22,10c-26,2 -42,24 -25,36c8,6 8,7 -3,4c-8,-2 -14,-13 -12,-23c2,-18 2,-18 -11,-1c-16,19 -32,23 -21,5c5,-9 2,-8 -9,1c-10,8 -20,11 -24,8c-3,-3 -20,0 -38,8c-19,7 -36,11 -38,8c-3,-2 -8,5 -12,16c-3,12 -11,18 -17,15c-6,-4 -5,-10 3,-15c10,-6 10,-9 2,-9c-6,0 -14,4 -18,10c-3,5 -13,6 -22,3c-11,-4 -14,-2 -9,5c4,7 -1,9 -16,7c-12,-3 -29,1 -37,9c-9,7 -24,14 -33,15c-43,3 -48,5 -48,22c0,10 5,21 11,24c6,4 9,0 7,-11c-2,-12 4,-19 17,-21l20,-3l-20,9c-13,6 -15,10 -5,10c11,1 11,4 2,13c-13,13 -42,20 -41,10c1,-4 1,-16 0,-27c-1,-16 -3,-17 -10,-5c-6,8 -7,19 -5,25c3,5 -1,3 -8,-6c-11,-14 -17,-15 -31,-4c-9,6 -13,16 -9,20c4,5 -1,5 -10,2c-19,-7 -43,17 -33,32c3,6 0,8 -8,5c-22,-8 -31,28 -12,42c9,7 15,21 12,31c-4,15 -5,15 -6,2c0,-9 -7,-19 -14,-22c-10,-4 -13,8 -13,43c1,53 9,68 28,52c10,-8 13,-3 13,23c0,18 -3,31 -7,29c-5,-3 -6,-9 -3,-14c3,-5 1,-11 -5,-15c-15,-9 -12,21 3,33c6,5 42,9 79,8c36,-1 64,2 62,6c-3,5 -12,8 -20,8c-8,0 -14,5 -14,10c0,6 -5,10 -11,10c-8,0 -8,-5 1,-15c8,-10 9,-15 2,-15c-6,0 -16,10 -23,21c-6,13 -7,19 -1,15c6,-3 12,-1 14,5c2,7 13,13 24,14c10,1 26,5 35,9c8,4 56,6 105,4l89,-3l0,-27c1,-15 5,-31 10,-35c4,-5 5,-2 0,6c-6,10 -4,13 7,9c8,-4 21,-2 29,4c11,8 11,9 -3,5c-17,-6 -34,20 -22,32c4,3 9,0 11,-6c3,-7 9,-13 14,-13c6,0 7,5 3,11c-5,8 -1,8 13,0c11,-6 23,-7 27,-3c4,3 5,-6 2,-22c-4,-23 -3,-26 10,-15c8,6 17,9 21,6c3,-4 13,-1 21,6c13,10 15,9 9,-7c-6,-16 -5,-17 7,-7c10,8 16,9 21,1c3,-6 11,-8 16,-5c5,4 20,-5 33,-19c23,-26 43,-36 31,-16c-3,6 1,7 9,4c18,-7 22,-34 5,-34c-5,0 -7,4 -4,10c3,6 -1,7 -10,3c-13,-5 -14,-7 -3,-14c13,-8 3,-13 -17,-9c-5,1 -6,-2 -2,-6c9,-10 56,-14 55,-5c0,3 0,14 1,23c1,16 3,16 19,3c47,-38 66,-56 55,-50c-7,3 -13,1 -13,-4c0,-24 28,-9 46,24c10,19 23,34 29,34c23,-3 33,2 39,17c5,13 4,14 -7,6c-8,-7 -18,-8 -22,-4c-5,4 -5,1 0,-7c6,-10 4,-12 -5,-6c-10,6 -10,10 2,19c8,6 15,15 16,19c0,5 4,12 8,15c4,4 4,1 -1,-7c-5,-9 -4,-12 3,-7c6,4 9,13 5,21c-3,8 1,15 8,15c7,0 9,3 6,7c-4,3 -2,12 4,20c6,7 8,13 4,13c-5,0 -1,8 8,18c32,35 63,127 46,138c-5,3 -8,1 -7,-4c2,-6 -1,-10 -7,-10c-5,0 -9,3 -8,7c1,4 -8,8 -19,8c-23,2 -40,22 -31,37c3,5 1,6 -6,2c-6,-4 -9,-12 -5,-17c3,-6 -12,-1 -35,10c-23,12 -41,27 -41,33c0,6 -3,8 -7,5c-3,-4 -12,-2 -20,4c-7,6 -13,8 -13,5c0,-4 -9,-2 -20,4c-12,7 -18,16 -13,23c4,8 1,8 -9,-1c-14,-11 -16,-10 -13,5c1,10 8,17 14,15c9,-2 9,3 1,17c-11,22 -37,19 -37,-4c0,-8 4,-12 9,-9c4,3 5,-2 1,-11c-4,-12 -8,-13 -13,-5c-4,7 -12,10 -18,6c-5,-3 -13,1 -16,10c-3,8 -2,12 3,9c5,-3 12,-1 16,5c7,11 -5,13 -29,4c-9,-3 -13,-10 -10,-15c3,-5 0,-9 -5,-9c-6,0 -11,6 -11,14c0,8 -4,18 -10,21c-6,3 -7,-1 -4,-9c3,-9 1,-16 -5,-16c-6,0 -11,5 -11,11c0,6 -9,8 -21,4c-16,-6 -20,-4 -13,6c6,12 5,12 -8,1c-10,-8 -19,-9 -22,-3c-8,12 -353,8 -380,-4c-12,-5 -17,-5 -14,1c4,5 -13,9 -37,10c-37,0 -41,-1 -29,-14c23,-22 9,-26 -21,-6c-27,18 -68,27 -60,13z"/>
   <path id="svg_4" d="m1982.000015,10144.444458l-143,-5l1,-896c0,-929 0,-934 -39,-910c-10,7 -8,12 10,25c13,9 18,16 11,16c-7,0 -11,4 -8,8c3,5 -1,9 -9,9c-11,0 -12,-4 -4,-14c13,-15 -2,-18 -17,-3c-7,7 -10,0 -9,-22c1,-29 5,-33 33,-34c18,-1 32,3 32,7c0,5 77,9 171,9c93,0 168,-4 165,-8c-2,-4 4,-9 15,-9c10,-1 19,3 19,8c0,6 -5,7 -12,3c-7,-4 -8,-3 -4,4c4,6 6,239 6,517c0,517 -1,510 35,506c6,0 10,10 10,23c0,16 -5,22 -15,19c-13,-4 -13,-4 0,6c13,9 13,11 -2,11c-20,0 -25,-26 -6,-32c8,-3 7,-6 -4,-10c-13,-5 -15,2 -15,45l0,50l28,-34c16,-19 29,-40 29,-47c0,-7 5,-10 11,-6c6,3 3,-6 -7,-22c-11,-15 -14,-25 -7,-21c6,4 14,3 17,-2c3,-5 -1,-12 -10,-15c-9,-4 -14,-9 -11,-13c4,-3 13,0 22,7c20,17 19,1 -2,-24c-15,-18 -14,-17 8,2c36,32 62,21 56,-24c-5,-35 6,-46 17,-18c4,10 2,13 -6,8c-7,-4 -8,-3 -4,5c10,15 36,-4 36,-26c0,-8 4,-12 9,-8c5,3 12,1 15,-4c4,-5 1,-13 -5,-17c-8,-5 -9,-3 -4,6c6,9 4,11 -5,5c-7,-4 -16,-2 -20,5c-6,10 -12,10 -26,0c-12,-7 -13,-10 -4,-7c9,3 24,-1 34,-9c11,-7 23,-11 29,-7c14,9 28,-20 14,-30c-8,-6 -4,-7 11,-4c12,3 20,2 17,-3c-3,-4 2,-10 10,-14c8,-3 15,-13 15,-21c0,-9 3,-14 8,-12c4,2 17,-9 30,-24c22,-27 18,-41 -4,-19c-7,7 -11,6 -11,-4c0,-8 4,-13 9,-10c10,6 11,-10 1,-19c-3,-4 -7,-24 -8,-45c-1,-27 3,-39 12,-39c9,0 10,4 3,11c-16,16 -12,30 5,16c13,-11 14,-10 8,6c-6,17 -5,17 10,5c14,-11 15,-16 5,-29c-10,-11 -6,-11 15,3c27,17 28,17 53,-6c23,-22 24,-24 8,-36c-9,-7 -21,-10 -25,-7c-5,3 -9,0 -9,-6c0,-8 7,-9 18,-5c31,13 57,18 50,10c-4,-5 -3,-14 3,-21c6,-8 8,-22 5,-31c-5,-15 -4,-15 9,1c12,16 15,17 15,4c0,-9 12,-23 26,-33c15,-9 23,-22 20,-31c-3,-7 0,-13 6,-11c6,1 13,-4 16,-12c3,-9 0,-11 -8,-6c-9,5 -11,4 -6,-4c4,-6 11,-9 16,-6c4,3 25,-16 46,-42c21,-26 33,-44 27,-40c-15,10 -10,-73 6,-99c12,-18 12,-18 6,1c-12,36 -14,76 -5,70c6,-4 10,0 10,7c0,7 6,4 12,-7c7,-11 17,-26 24,-33c7,-7 30,-33 51,-58l37,-46l-23,-18c-18,-13 -21,-19 -11,-25c9,-5 11,-4 6,4c-6,8 0,10 21,6c20,-4 23,-3 9,3c-14,6 -16,11 -7,16c7,5 13,6 15,5c25,-37 36,-61 32,-68c-3,-5 2,-8 12,-7c11,1 16,-5 14,-16c-1,-9 3,-20 9,-24c8,-4 9,-3 5,4c-4,7 -3,12 2,12c14,0 23,-28 12,-35c-11,-7 9,-45 23,-45c4,0 6,4 2,9c-3,5 -1,13 5,16c6,4 9,1 8,-7c-2,-10 26,-14 131,-16c87,-2 140,-7 150,-15c12,-9 13,-9 7,1c-4,6 -3,12 3,12c5,0 18,3 28,6c17,6 17,6 -1,-8c-18,-14 -18,-15 2,-13c32,2 37,12 13,27l-21,13l0,893c1,795 2,892 16,881c12,-10 12,-14 2,-20c-10,-7 -9,-9 4,-9c13,0 17,6 15,22c-4,21 -6,21 -193,20c-104,-1 -192,-2 -196,-2c-5,0 -8,-236 -8,-525c0,-546 0,-549 -39,-512c-11,10 -13,10 -7,0c4,-7 3,-13 -3,-13c-5,0 -11,6 -14,13c-3,6 -4,2 -4,-10c1,-17 5,-20 18,-12c11,6 20,5 24,-1c4,-6 11,-8 16,-5c5,4 9,1 9,-5c0,-6 -10,-8 -24,-4c-24,6 -44,-10 -26,-21c5,-3 10,-1 10,4c0,6 5,11 11,11c8,0 7,-6 -2,-17c-11,-15 -11,-16 1,-5c21,18 25,15 25,-22c0,-19 -3,-32 -7,-29c-5,2 -8,11 -8,20c0,9 -3,13 -7,10c-11,-12 -63,69 -58,92c2,12 0,19 -6,16c-5,-4 -9,-2 -9,4c0,5 4,12 9,15c17,11 4,41 -17,42c-28,2 -29,-13 -2,-21c11,-4 18,-11 14,-16c-3,-6 -12,-5 -22,3c-15,12 -16,11 -3,-4c16,-22 -1,-24 -19,-3c-6,8 -8,20 -4,26c4,7 3,9 -3,6c-9,-6 -37,20 -40,36c0,5 -12,21 -26,35c-21,23 -37,61 -42,97c0,6 4,14 10,18c6,5 2,6 -8,3c-12,-4 -17,-2 -14,6c2,7 9,12 15,11c11,-3 8,35 -4,46c-4,3 -4,-2 -1,-11c3,-10 2,-20 -3,-23c-9,-6 -14,8 -11,28c1,10 -17,9 -23,-2c-4,-5 0,-12 6,-14c8,-4 7,-6 -4,-6c-9,-1 -19,-5 -22,-10c-3,-4 7,-7 22,-5l27,4l-25,-9c-14,-5 -19,-9 -12,-10c19,-1 48,-31 30,-31c-10,0 -9,-3 2,-10c8,-5 10,-10 4,-10c-6,0 -17,7 -24,15c-7,8 -10,15 -6,15c3,0 -8,13 -24,29c-17,15 -30,31 -30,35c0,4 -14,21 -30,38c-32,31 -60,76 -42,64c7,-4 9,1 7,14c-2,11 0,22 5,25c5,3 6,13 3,21c-5,13 -7,13 -14,2c-7,-10 -9,-10 -9,0c0,6 -5,12 -11,12c-8,0 -7,-5 2,-16c10,-13 10,-17 -2,-25c-11,-7 -10,-9 6,-10c11,0 14,-3 7,-6c-7,-3 -19,1 -28,8c-12,10 -12,14 -2,20c11,7 11,9 0,9c-7,0 -10,4 -7,10c4,6 -1,7 -11,3c-12,-4 -15,-3 -10,5c4,7 1,12 -7,12c-8,0 -18,7 -21,16c-3,8 -2,13 2,10c5,-3 9,1 9,10c0,9 -7,12 -17,9c-17,-5 -55,47 -43,59c4,4 -1,4 -12,0c-18,-7 -19,-6 -5,11c14,17 13,18 -2,12c-12,-4 -24,3 -38,23l-21,29l21,11c17,9 19,14 10,25c-6,8 -19,11 -27,8c-12,-5 -15,-2 -10,10c4,10 2,16 -5,14c-5,-1 -12,6 -13,16c-2,11 1,17 9,14c7,-3 12,4 13,17c0,11 -1,16 -4,9c-2,-7 -11,-9 -20,-6c-11,4 -14,2 -9,-5c4,-8 0,-12 -11,-13c-16,0 -16,-1 2,-9c11,-5 16,-9 11,-9c-5,-1 -3,-8 4,-16c7,-9 9,-19 5,-23c-4,-4 -10,-1 -13,7c-2,7 -12,21 -22,31c-9,9 -16,24 -14,34c2,14 0,15 -13,4c-14,-11 -15,-10 -6,7c15,31 10,50 -14,53c-17,3 -21,-1 -17,-12c3,-8 11,-17 17,-19c7,-2 6,-3 -2,-3c-8,1 -30,24 -48,51c-19,28 -48,65 -64,84c-22,26 -28,41 -24,65c2,17 2,25 -1,19c-4,-8 -12,-10 -22,-5c-9,4 -81,5 -160,2z"/>
   <path id="svg_5" d="m4814.000015,10139.444458c-3,-9 1,-46 6,-52c2,-2 3,-7 4,-12c0,-5 4,-12 8,-16c4,-4 4,-13 1,-21c-3,-8 -1,-14 4,-14c6,0 15,-11 21,-25c6,-14 8,-25 4,-25c-4,0 -12,10 -17,23c-10,21 -38,32 -32,12c1,-5 6,-9 10,-7c5,1 11,-6 14,-17c3,-11 12,-22 22,-24c9,-2 4,-4 -10,-3c-23,2 -24,0 -15,-21c8,-16 12,-18 14,-8c4,17 28,20 37,5c3,-6 -1,-7 -12,-4c-13,4 -13,2 3,-8c12,-7 19,-19 17,-25c-3,-7 1,-13 7,-13c9,0 9,-5 -1,-17c-12,-15 -12,-16 3,-10c10,3 17,3 17,-1c-4,-28 2,-52 13,-46c6,4 8,3 5,-3c-4,-6 2,-26 12,-46c10,-20 15,-34 10,-31c-5,3 -9,0 -9,-5c0,-6 7,-11 16,-11c12,0 14,-9 11,-39c-2,-22 -1,-40 2,-39c3,0 12,0 20,-1c16,-1 5,-16 -12,-16c-5,0 -12,-7 -14,-15c-4,-13 -3,-13 6,0c7,10 11,11 11,3c0,-7 5,-13 11,-13c5,0 7,5 4,10c-3,6 -1,10 5,10c7,0 10,-6 7,-14c-3,-8 -1,-17 6,-20c7,-4 3,-5 -9,-2c-17,3 -20,-1 -16,-20c2,-13 8,-24 13,-24c5,0 6,6 3,13c-3,8 2,14 10,14c8,0 12,-6 9,-14c-3,-7 -1,-13 4,-13c16,0 34,-48 20,-53c-7,-2 -3,-12 13,-25c14,-12 20,-21 15,-22c-6,0 -16,5 -21,10c-7,7 -11,6 -11,-4c0,-8 4,-13 8,-10c10,6 49,-35 50,-53c2,-22 4,-28 13,-42c6,-9 5,-12 -5,-9c-8,3 -14,13 -14,22c0,22 -31,41 -41,25c-10,-17 -13,-83 -2,-67c6,10 10,10 18,-2c6,-9 10,-10 10,-3c0,6 -4,15 -10,18c-5,3 -10,13 -10,21c0,8 5,14 10,14c6,0 10,-5 10,-11c0,-6 7,-17 15,-25c8,-9 15,-13 15,-9c0,11 26,-19 33,-39c5,-13 3,-17 -6,-13c-14,5 -19,-17 -10,-43c4,-8 7,-19 7,-25c1,-5 6,-10 11,-10c6,0 9,6 9,13c-1,7 2,12 8,10c5,-2 9,-7 8,-12c-1,-5 4,-13 12,-17c10,-7 10,-9 1,-9c-7,0 -13,-5 -13,-11c0,-5 5,-7 10,-4c17,10 41,-57 27,-75c-6,-8 -7,-12 -2,-7c4,4 17,-5 27,-20c20,-31 23,-48 8,-38c-5,3 -10,1 -10,-6c0,-6 -8,-18 -17,-25c-17,-13 -17,-14 1,-7c12,4 17,3 13,-4c-3,-5 1,-10 9,-10c8,0 13,6 10,13c-3,8 -1,16 3,19c11,6 23,-23 15,-36c-3,-5 2,-16 10,-24c8,-9 12,-23 9,-32c-4,-11 -3,-14 5,-9c7,4 12,4 13,-1c0,-4 2,-16 4,-26c2,-11 -1,-17 -9,-14c-12,5 -16,-46 -4,-58c4,-4 4,-14 1,-23c-3,-10 -1,-13 4,-7c4,6 16,11 27,13c13,3 17,-1 13,-12c-3,-8 -1,-18 5,-22c7,-5 8,-2 3,6c-5,9 -4,11 4,6c9,-6 9,-11 0,-22c-9,-12 -9,-13 2,-9c18,7 43,-51 27,-62c-6,-3 -8,-2 -5,3c3,6 1,16 -4,24c-7,11 -8,8 -5,-10c2,-17 9,-24 20,-22c11,2 16,-5 17,-20c3,-55 5,-63 17,-60c8,1 11,-2 8,-7c-4,-5 -1,-11 4,-13c6,-2 12,-13 13,-26c0,-12 6,-22 11,-22c5,0 6,-3 3,-6c-3,-4 0,-16 8,-27c11,-16 12,-24 3,-34c-9,-11 -8,-13 2,-11c8,2 14,-1 15,-7c0,-5 9,-24 18,-42c21,-39 22,-49 2,-33c-8,7 -13,16 -10,20c3,5 1,11 -3,14c-5,3 -9,-6 -8,-21c0,-14 -5,-27 -12,-29c-7,-1 -8,0 -3,2c6,3 7,14 2,27c-4,12 -6,27 -4,33c2,6 -2,16 -10,22c-10,9 -14,8 -14,-3c0,-8 3,-12 7,-10c4,2 7,-11 7,-30c0,-19 -4,-32 -9,-29c-4,3 -8,0 -8,-5c0,-6 3,-12 8,-12c34,-6 51,-5 45,3c-3,6 2,8 13,5c11,-4 33,-9 49,-12c24,-4 26,-3 10,4c-14,7 -16,10 -5,10c9,1 21,-4 28,-11c9,-9 12,-9 12,0c0,15 156,17 165,3c3,-6 14,-9 25,-8c10,1 17,3 14,6c-2,3 9,10 26,17c16,7 30,18 30,24c0,6 -4,8 -10,5c-5,-3 -7,0 -4,8c3,8 18,14 35,15l30,1l-22,-18c-18,-15 -20,-21 -10,-39c13,-25 36,-20 38,8c1,11 -2,18 -7,15c-5,-3 -11,-1 -14,4c-3,5 1,12 10,15c13,5 14,9 4,21c-7,8 -8,15 -3,15c12,0 14,38 2,45c-5,4 -6,-2 -2,-12c6,-16 5,-16 -11,-4c-17,14 -16,16 6,33c15,12 17,16 5,12c-13,-5 -16,-2 -11,10c3,9 10,14 14,11c5,-3 7,3 5,12c-1,10 10,43 26,74c15,31 25,60 21,64c-4,4 0,5 8,3c8,-2 18,-7 22,-13c4,-5 6,0 6,12c-1,13 -7,19 -15,16c-9,-4 -11,0 -7,11c3,9 10,14 14,11c5,-3 6,4 3,15c-4,17 0,20 23,20c22,0 25,3 14,9c-8,6 -18,7 -23,4c-5,-3 -3,5 4,18c7,13 14,32 16,43c2,10 8,26 14,35c8,13 9,12 4,-7c-12,-43 -14,-83 -5,-77c6,4 10,15 10,26c0,11 5,17 10,14c6,-3 10,-1 10,4c0,6 -6,11 -12,11c-8,0 -5,7 6,15c11,8 15,15 9,15c-6,0 -14,7 -17,16c-6,15 -4,15 10,3c16,-13 16,-12 5,10c-9,17 -10,26 -2,34c6,6 11,19 11,29c0,10 5,18 10,18c6,0 9,3 8,8c-4,16 14,52 24,46c6,-4 8,1 4,12c-7,23 8,52 18,35c4,-6 2,-11 -3,-11c-6,0 -11,-4 -11,-10c0,-5 7,-6 17,-3c11,5 14,3 8,-6c-4,-8 -2,-17 6,-22c10,-6 4,-9 -18,-9c-28,0 -33,-4 -32,-22c1,-17 2,-19 6,-5c3,12 14,17 36,16c30,-2 31,-2 5,-6c-16,-2 -28,-8 -28,-12c0,-5 11,-6 24,-4c21,4 27,-2 46,-44c12,-26 22,-56 23,-65c1,-10 5,-18 10,-18c4,0 5,-4 2,-10c-3,-5 -1,-10 6,-10c7,0 9,-3 6,-7c-4,-3 -16,2 -27,12c-11,10 -20,14 -20,10c0,-5 -5,-4 -12,3c-9,9 -9,15 0,24c9,9 12,9 12,0c0,-7 5,-12 11,-12c8,0 9,4 0,13c-6,8 -7,18 -3,23c4,4 -2,2 -12,-6c-18,-13 -19,-13 -14,1c4,9 1,16 -8,16c-7,0 -10,-5 -7,-10c3,-5 7,-19 8,-31c1,-11 3,-24 4,-28c0,-5 10,-8 21,-8c11,0 20,-4 20,-9c0,-5 9,-13 20,-16c12,-4 17,-11 13,-18c-4,-7 -9,-21 -10,-32c-2,-16 -1,-17 6,-5c5,8 7,18 5,22c-3,4 -1,8 4,8c6,0 13,-7 16,-16c3,-8 2,-12 -4,-9c-16,10 -11,-7 6,-19c8,-6 16,-18 18,-26c1,-8 8,-26 13,-40c23,-53 38,-95 35,-102c-1,-5 2,-8 8,-8c5,0 6,-7 3,-17c-4,-11 -3,-14 5,-9c8,5 10,2 6,-8c-3,-9 -1,-16 6,-16c6,0 9,-4 5,-9c-3,-5 -1,-12 5,-16c6,-4 8,-10 5,-15c-3,-5 2,-16 11,-24c8,-9 12,-16 7,-16c-5,0 -15,6 -22,13c-10,10 -11,9 -6,-5c4,-11 2,-18 -4,-18c-11,0 -15,12 -12,40c1,11 -2,9 -10,-4c-9,-15 -13,-16 -21,-5c-8,11 -9,11 -5,-1c2,-8 10,-14 17,-12c7,2 10,-3 7,-12c-5,-11 2,-13 34,-10c24,3 39,1 39,-6c0,-6 -3,-9 -8,-6c-4,2 -8,-10 -8,-27c-1,-18 1,-26 3,-19c3,6 12,12 21,11c11,0 12,-3 5,-6c-10,-3 -10,-8 1,-19c17,-16 30,-19 21,-4c-3,6 -1,10 4,10c6,0 11,-6 11,-12c0,-10 2,-10 9,0c6,11 39,13 144,10c74,-1 133,0 131,3c-2,4 5,9 16,12c22,6 26,-2 10,-21c-5,-7 -3,-6 6,2c19,16 10,38 -11,29c-8,-3 -15,0 -15,6c0,6 10,12 23,12c17,1 18,2 4,6c-9,2 -15,9 -11,14c3,5 11,6 17,2c7,-4 6,0 -2,10c-7,9 -9,17 -4,17c5,0 10,10 10,22c1,13 7,24 13,26c5,2 8,8 4,13c-3,5 6,4 21,-3c19,-8 28,-9 37,0c8,8 5,9 -13,5c-23,-5 -23,-5 -5,9c13,11 16,17 7,22c-6,4 -9,12 -6,17c4,5 2,9 -3,9c-6,0 -13,-7 -16,-16c-9,-23 -8,-24 12,-18c14,5 15,4 2,-5c-22,-15 -33,2 -19,32c7,16 18,24 29,22c18,-4 21,10 7,33c-5,6 -4,12 2,12c5,0 8,8 6,18c-2,13 3,18 18,19c12,0 31,4 41,8c15,7 17,5 11,-6c-4,-8 -4,-11 0,-6c5,4 9,16 10,27c1,14 -2,17 -10,10c-7,-5 -15,-6 -19,-2c-4,4 -12,7 -17,7c-10,0 -10,4 -2,36c5,16 11,19 32,15c14,-3 20,-3 14,0c-7,3 -13,13 -13,22c0,15 -2,15 -11,2c-9,-13 -10,-13 -6,0c2,8 11,14 20,14c15,-1 17,12 4,34c-5,7 -3,12 3,12c6,0 9,3 7,8c-7,11 29,72 39,64c4,-4 3,0 -2,8c-15,20 11,84 31,77c10,-4 12,1 9,19c-2,13 2,37 10,53c9,16 13,31 11,33c-3,3 2,5 10,5c19,0 19,-5 0,-24c-9,-8 -13,-18 -10,-22c4,-3 11,2 16,12c6,9 15,14 21,11c8,-5 9,-1 5,10c-4,10 -7,22 -7,27c0,4 -7,6 -15,2c-13,-4 -12,3 5,46c11,29 20,54 20,57c0,4 7,3 16,0c9,-4 13,-2 8,5c-4,8 1,9 15,4c13,-4 29,-1 38,7c15,11 16,11 9,-7c-6,-17 -5,-18 6,-7c11,11 10,16 -4,26c-10,7 -14,17 -10,21c4,4 1,6 -7,3c-8,-2 -17,-10 -19,-18c-3,-7 0,-10 7,-6c6,4 11,2 11,-3c0,-13 -17,-13 -45,-1c-17,7 -17,9 -2,9c9,1 17,6 17,12c0,5 -6,7 -12,3c-10,-6 -10,-5 -1,7c6,8 12,17 12,22c1,10 11,10 19,1c4,-4 2,-4 -4,-1c-6,3 -11,0 -11,-8c0,-11 4,-12 14,-4c7,6 10,15 7,20c-3,5 -7,19 -9,31c-4,21 -3,22 9,5c12,-16 14,-15 14,8c0,15 -5,22 -12,18c-6,-4 -4,1 4,12c8,10 14,20 13,22c-7,9 -2,23 7,18c5,-3 7,0 4,8c-7,19 10,30 50,31c20,1 31,7 31,16c0,8 -4,15 -10,16c-5,0 -18,4 -28,9c-14,6 -15,10 -6,21c6,8 8,14 4,14c-4,0 -2,7 5,15c7,8 9,15 4,15c-4,0 -3,5 4,12c7,7 12,19 12,28c0,9 9,25 19,34c18,16 20,16 41,-6l22,-23l-11,23c-11,20 -9,26 11,43c13,11 16,17 8,13c-8,-4 -23,-14 -32,-22c-13,-10 -18,-11 -18,-3c0,7 -5,9 -11,6c-6,-4 -5,2 3,14c7,12 17,21 22,21c4,0 3,-8 -5,-17c-12,-16 -11,-16 7,0c12,11 15,20 9,25c-18,12 -11,37 11,36c11,0 21,5 21,12c0,7 -9,11 -19,9c-19,-4 -17,4 6,34c6,7 11,19 12,25c0,6 2,16 2,22c1,6 14,10 28,8c14,-1 23,0 20,3c-3,4 -1,12 6,20c8,10 8,17 -1,26c-10,9 -11,8 -5,-6c5,-13 2,-16 -10,-11c-18,7 -21,20 -6,29c6,4 7,11 4,17c-5,7 -2,9 8,6c8,-4 21,-2 29,3c12,7 12,9 -1,9c-13,0 -13,1 0,11c13,9 13,10 0,6c-8,-2 -14,-10 -12,-16c1,-7 -2,-10 -7,-7c-5,3 -7,15 -4,26c3,11 10,17 16,13c6,-4 8,0 4,10c-6,17 18,31 35,20c7,-4 8,-1 4,6c-5,7 -14,10 -22,7c-10,-4 -11,0 -3,21c5,14 13,31 17,37c4,6 7,15 7,20c0,5 6,11 13,14c8,2 10,-2 6,-13c-5,-12 -2,-16 12,-13c13,2 18,-2 16,-14c-2,-10 2,-18 8,-18c5,0 10,-7 10,-15c0,-8 5,-15 11,-15c8,0 7,-5 -1,-15c-11,-13 -10,-14 3,-9c16,6 42,-28 30,-39c-3,-4 2,-9 11,-13c9,-3 13,-10 10,-15c-3,-5 0,-9 6,-9c6,0 8,-4 5,-10c-3,-5 -1,-10 4,-10c6,0 11,-6 11,-14c0,-8 6,-21 13,-28c26,-26 38,-56 25,-64c-6,-4 -8,-3 -5,3c3,5 0,10 -8,10c-13,0 -12,-4 2,-19c17,-19 28,-24 18,-8c-3,6 -2,10 2,10c5,0 14,-9 21,-21c8,-12 10,-19 5,-16c-5,3 -9,-5 -9,-18c0,-13 3,-22 7,-20c3,3 15,-3 25,-11c10,-9 13,-13 7,-9c-9,4 -11,1 -6,-11c5,-14 3,-16 -12,-10c-18,7 -18,6 0,-14c14,-16 16,-23 7,-32c-9,-9 -12,-8 -12,4c0,9 -4,20 -10,23c-7,4 -7,-2 -1,-18c6,-14 7,-29 3,-33c-4,-5 0,-4 8,2c8,6 22,10 30,9c8,-1 23,-3 32,-3c17,-2 17,-14 3,-57c-6,-18 -5,-18 5,-2c6,9 16,17 21,17c6,0 3,-10 -5,-22c-20,-28 -21,-43 -2,-26c8,7 12,16 9,21c-2,4 0,7 6,7c23,0 19,-20 -7,-42c-24,-20 -26,-26 -15,-36c7,-7 18,-10 23,-7c5,3 7,0 4,-8c-3,-8 1,-14 10,-14c8,0 13,4 10,8c-2,4 4,10 13,12c14,4 13,5 -4,6c-13,0 -23,7 -23,14c0,9 -3,8 -9,-2c-5,-8 -11,-9 -15,-3c-3,5 1,15 9,22c12,10 16,9 21,-4c3,-9 11,-16 17,-16c5,0 2,9 -8,20c-10,11 -14,20 -9,20c5,0 17,-13 26,-28c14,-23 15,-31 5,-41c-9,-10 -8,-11 8,-5c18,7 19,6 6,-10c-11,-13 -11,-16 -1,-14c7,2 15,-3 17,-10c3,-8 -1,-10 -13,-5c-12,4 -15,3 -10,-6c5,-7 17,-10 28,-8c11,3 18,3 15,0c-3,-3 8,-23 24,-46c16,-22 29,-44 29,-48c0,-4 14,-30 31,-58c21,-33 30,-58 26,-72c-3,-11 -3,-18 0,-15c10,9 70,-70 65,-86c-1,-5 2,-8 8,-8c5,0 8,-18 6,-40c-4,-43 8,-60 27,-41c9,9 8,11 -3,6c-11,-4 -15,2 -17,22l-1,27l18,-24c17,-23 19,-49 20,-327c0,-239 -2,-303 -12,-303c-10,0 -10,-2 -1,-8c7,-4 11,-18 8,-31c-3,-18 -1,-20 9,-12c7,6 82,12 185,13l173,3l-1,312c-2,291 -1,312 15,306c12,-4 15,-3 10,5c-4,8 0,12 11,13c10,0 13,3 6,6c-15,6 -17,43 -3,43c6,0 10,6 10,14c0,7 7,19 15,26c8,6 14,15 14,18c-3,19 15,52 28,52c7,0 13,6 11,13c-4,21 13,57 26,57c8,0 19,7 26,15c7,9 19,14 26,11c7,-3 18,2 24,10c9,10 9,14 1,14c-6,0 -11,-5 -11,-11c0,-5 -5,-7 -10,-4c-6,4 -2,18 12,38c12,17 17,27 10,23c-15,-9 -15,-2 -2,46c6,20 17,39 26,42c8,3 13,10 10,15c-3,4 3,16 14,26c11,10 20,13 20,7c0,-6 -6,-12 -12,-14c-7,-3 -3,-7 8,-10c16,-4 21,-1 20,11c0,9 -7,20 -13,24c-16,10 -17,27 -2,27c5,0 7,-5 3,-12c-4,-6 -3,-8 4,-4c6,3 9,15 7,25c-2,10 4,29 13,42c20,29 52,37 52,13c0,-10 -5,-14 -16,-10c-8,3 -12,2 -9,-3c7,-13 43,-10 41,4c-1,5 -5,15 -9,22c-4,6 -2,13 5,15c7,3 5,7 -6,11c-9,4 -15,3 -12,-1c3,-5 -1,-9 -8,-9c-11,0 -12,6 -4,23c6,12 16,20 23,18c18,-7 29,14 16,30c-9,10 -8,15 4,20c8,3 15,14 15,25c0,11 11,33 25,49c13,16 22,31 19,34c-2,3 2,11 11,18c11,9 15,9 15,1c0,-7 5,-9 10,-6c6,3 10,1 10,-5c0,-7 -8,-9 -22,-4c-13,3 -20,3 -16,-1c4,-4 18,-9 32,-10c19,-3 23,1 18,13c-5,15 -4,15 11,3c19,-15 19,-16 21,39c0,22 -3,40 -8,40c-5,0 -3,6 3,14c9,11 9,16 0,22c-7,4 -9,3 -5,-4c3,-6 2,-13 -3,-16c-19,-12 -20,12 -1,29c11,10 17,23 13,29c-4,6 1,5 10,-3c14,-11 21,-11 43,4c25,16 27,16 21,1c-4,-10 -3,-14 2,-11c6,3 9,14 8,25c-1,10 -5,16 -11,13c-6,-4 -6,1 -2,13c12,28 14,94 3,87c-5,-3 -4,4 2,16c7,11 19,21 29,21c13,0 14,2 4,9c-11,7 -10,10 3,15c28,10 32,7 27,-19c-5,-29 0,-32 19,-8c11,13 11,15 1,9c-9,-6 -12,-3 -10,10c2,11 7,22 12,25c4,4 3,10 -3,13c-6,4 -11,2 -11,-3c0,-6 -7,-11 -16,-11c-8,0 -13,3 -11,8c3,4 -83,7 -191,7c-185,0 -198,-1 -212,-20c-8,-11 -14,-23 -12,-27c1,-5 -3,-8 -9,-8c-5,0 -8,-4 -5,-9c3,-5 -1,-12 -10,-15c-9,-4 -14,-9 -11,-13c9,-8 -11,-43 -25,-43c-9,0 -9,3 0,12c17,17 15,35 -4,42c-15,6 -15,4 -3,-11c12,-15 12,-16 -3,-10c-13,4 -15,2 -11,-10c5,-12 2,-14 -8,-9c-8,4 -4,-1 9,-12c22,-20 31,-39 12,-27c-6,3 -7,-1 -4,-9c3,-9 1,-16 -6,-16c-6,0 -8,-4 -5,-10c3,-5 1,-10 -4,-10c-6,0 -10,-3 -10,-7c4,-25 -3,-35 -21,-30c-11,3 -20,1 -20,-4c0,-5 8,-9 18,-9c14,0 15,-2 2,-10c-8,-5 -11,-10 -7,-10c4,0 3,-9 -3,-21c-7,-11 -14,-18 -17,-15c-3,3 0,12 7,21c8,10 9,15 1,15c-6,0 -11,9 -11,20c0,11 -4,20 -9,20c-5,0 -8,-8 -6,-17c2,-10 4,-18 5,-18c1,0 3,-15 5,-33c2,-21 -2,-35 -11,-39c-8,-3 -12,-8 -10,-12c2,-3 0,-16 -5,-28c-6,-15 -15,-21 -33,-19c-15,2 -31,-4 -38,-13c-11,-14 -11,-14 4,-3c11,9 18,10 23,2c3,-6 12,-7 18,-3c7,4 6,0 -2,-10c-7,-9 -11,-17 -7,-17c4,0 0,-13 -9,-30c-9,-16 -20,-30 -25,-30c-5,0 -7,-6 -4,-14c3,-8 -5,-24 -18,-36c-13,-13 -17,-19 -9,-15c10,5 8,-2 -5,-24c-10,-17 -22,-31 -27,-31c-4,0 -6,-4 -3,-8c7,-12 -6,-26 -38,-40c-16,-7 -26,-15 -23,-18c3,-3 16,0 29,7c22,12 23,11 5,-8c-9,-11 -14,-23 -10,-26c12,-13 -13,-7 -27,6c-8,6 -6,2 4,-10c22,-27 6,-31 -20,-6c-16,16 -16,16 -9,-7l8,-25l-23,20c-13,11 -20,14 -16,8c10,-18 -9,-16 -24,2c-7,8 -18,15 -24,14c-7,0 -6,-2 2,-6c6,-2 10,-8 8,-12c-2,-3 7,-11 20,-18c14,-6 24,-7 24,-1c0,5 5,6 10,3c6,-4 10,-12 9,-18c-3,-25 1,-38 11,-32c6,3 7,-1 4,-9c-3,-9 -10,-16 -16,-16c-5,0 -7,-4 -4,-9c3,-5 -1,-11 -9,-14c-10,-4 -12,-1 -8,10c4,10 2,14 -4,10c-5,-3 -10,-1 -10,6c0,7 -4,21 -9,32c-7,18 -6,18 9,6c11,-9 17,-10 17,-2c0,11 -13,15 -39,12c-7,-2 -10,2 -6,8c3,6 2,11 -2,11c-10,0 -33,57 -29,73c1,7 1,9 -1,5c-3,-5 -10,-8 -16,-8c-5,0 -7,3 -4,6c3,4 -3,18 -13,32c-15,19 -17,28 -9,38c8,10 9,18 0,27c-6,8 -9,16 -6,19c3,2 -2,5 -10,5c-13,0 -13,-3 1,-18c12,-13 12,-19 3,-25c-7,-4 -10,-3 -6,3c4,6 0,16 -8,23c-8,7 -13,16 -10,20c3,5 1,11 -5,15c-5,3 -15,15 -21,26c-9,17 -7,20 7,17c18,-3 27,21 14,42c-5,9 -9,9 -14,1c-4,-6 -2,-11 4,-11c6,0 8,-4 5,-10c-3,-5 -13,-10 -22,-10c-11,0 -13,5 -8,18c11,26 13,72 3,66c-5,-4 -7,-12 -4,-20c3,-8 1,-14 -5,-14c-6,0 -7,-5 -3,-12c4,-7 3,-8 -4,-4c-6,4 -8,14 -5,23c5,12 3,14 -8,8c-12,-8 -12,-6 0,8c12,15 12,17 -2,11c-12,-4 -15,-1 -12,15c2,11 -1,24 -7,27c-7,5 -8,2 -3,-7c6,-11 5,-11 -5,-2c-12,11 -5,37 8,29c4,-2 8,8 9,22l1,27l-14,-25c-7,-14 -13,-19 -14,-12c0,7 -4,11 -9,8c-5,-4 -8,5 -7,18c2,16 -1,23 -10,19c-7,-2 -17,5 -24,16c-6,12 -7,21 -3,21c4,0 1,5 -7,10c-8,5 -10,10 -4,10c6,0 11,7 11,15c0,18 -17,20 -18,3c0,-11 -14,15 -21,40c-1,4 -7,13 -14,20c-15,14 -7,45 8,36c6,-4 5,3 -2,15c-9,18 -30,21 -30,5c0,-3 4,-2 10,1c6,3 7,-1 4,-10c-7,-17 -14,-15 -18,7c-1,7 -13,30 -26,51l-25,38l-393,1c-216,0 -396,-3 -400,-7c-4,-5 -1,-5 6,-1c6,4 12,2 12,-3c0,-6 -7,-11 -15,-11c-8,0 -15,8 -15,17c0,24 -8,12 -14,-20c-4,-25 -3,-26 17,-15c20,10 21,10 8,-5c-7,-10 -10,-17 -6,-17c4,0 2,-7 -5,-15c-7,-9 -14,-25 -15,-38c-1,-12 -3,-27 -4,-34c0,-7 -8,-10 -18,-6c-14,5 -16,3 -6,-7c9,-9 9,-19 2,-32c-10,-19 -11,-19 -24,-1c-10,13 -11,22 -2,33c10,13 9,13 -5,0c-26,-23 -29,-66 -7,-86c12,-11 16,-21 10,-28c-5,-6 -9,-14 -8,-18c1,-3 -2,-10 -7,-15c-5,-5 -6,-2 -1,6c5,9 4,12 -2,8c-6,-4 -8,-17 -6,-29c3,-17 -2,-26 -19,-33c-12,-5 -24,-19 -25,-30c-3,-18 -2,-18 9,3c6,12 15,22 21,22c5,0 5,-6 -2,-13c-6,-8 -8,-17 -4,-20c12,-13 -28,-19 -42,-7c-9,7 -18,10 -22,6c-3,-3 -1,-6 7,-6c9,0 9,-4 2,-12c-18,-22 -18,-26 8,-54c17,-19 20,-25 8,-21c-16,6 -35,-20 -23,-31c3,-3 5,0 5,6c0,7 4,12 9,12c10,0 -10,-62 -27,-82c-6,-8 -9,-17 -6,-21c3,-3 0,-16 -7,-29c-7,-12 -12,-29 -10,-37c1,-7 -2,-10 -7,-7c-6,3 -13,-1 -16,-10c-3,-8 -2,-12 4,-9c16,10 12,-7 -9,-39c-11,-16 -17,-34 -15,-41c3,-6 -6,-28 -20,-48c-14,-19 -20,-37 -15,-39c5,-2 4,-11 -4,-22c-12,-17 -13,-16 -13,10c1,16 5,36 9,44c5,8 0,5 -11,-7c-11,-12 -21,-20 -24,-18c-2,2 -4,-6 -4,-20c0,-13 3,-22 7,-19c4,2 12,-2 18,-10c8,-10 7,-22 -6,-47c-9,-18 -18,-44 -19,-57c-3,-25 -33,-54 -47,-45c-5,3 -3,10 4,15c11,6 9,8 -6,6c-27,-4 -36,-18 -24,-39c5,-10 6,-19 1,-22c-4,-2 -2,-2 5,-1c6,2 14,0 16,-4c2,-4 3,-2 1,5c-1,6 6,19 17,29c23,21 24,17 3,-25c-11,-23 -21,-31 -33,-27c-12,5 -11,2 3,-9c18,-13 18,-16 4,-32c-8,-10 -13,-23 -11,-30c2,-7 -10,-17 -29,-22c-28,-9 -29,-10 -5,-7c15,2 27,-1 27,-5c0,-5 -6,-9 -14,-9c-23,0 -41,-29 -27,-43c10,-9 11,-8 6,4c-4,10 0,19 11,23c15,6 15,4 3,-10c-8,-10 -13,-19 -11,-21c7,-7 -10,-63 -18,-63c-5,0 -6,-7 -3,-17c4,-11 3,-14 -5,-9c-7,4 -12,14 -12,22c0,8 -4,13 -9,10c-15,-10 -20,32 -5,51c12,16 13,15 11,-11c-1,-16 4,-31 11,-33c6,-3 12,0 12,7c0,6 -4,9 -9,6c-10,-6 -9,12 0,29c3,6 3,21 -2,35c-4,14 -7,18 -8,9c-1,-9 -11,-24 -23,-35c-12,-10 -18,-14 -15,-7c4,6 3,14 -3,18c-6,4 -8,11 -5,16c4,5 0,9 -7,9c-7,0 -5,5 6,11c12,8 20,8 25,1c3,-5 14,0 24,14c14,19 15,22 2,18c-8,-3 -15,-10 -15,-16c0,-5 -4,-7 -9,-3c-5,3 -8,18 -5,33c2,15 1,23 -3,17c-9,-11 -33,-18 -33,-9c0,3 9,19 20,34c19,27 11,35 -17,17c-8,-5 -13,-3 -13,3c0,6 -5,8 -10,5c-6,-4 -4,-12 5,-21c8,-9 13,-20 9,-25c-7,-13 15,-41 27,-33c5,3 6,-2 3,-10c-3,-9 -10,-16 -16,-16c-5,0 -7,4 -4,9c3,5 -1,11 -9,15c-8,3 -15,14 -15,25c0,11 -5,23 -11,26c-6,4 -8,13 -5,21c3,7 1,16 -5,19c-5,4 -7,11 -4,16c4,5 0,9 -7,9c-10,0 -10,2 1,9c11,7 10,11 -5,19c-9,5 -19,17 -21,26c-7,35 -9,41 -16,54c-5,6 -5,12 -1,12c4,0 0,8 -9,18c-10,10 -14,22 -10,25c3,4 1,7 -6,7c-8,0 -11,6 -7,16c3,8 2,12 -4,9c-11,-7 -12,-1 -14,55c-1,23 3,34 11,33c8,-2 10,4 6,14c-5,12 -3,14 8,8c11,-7 12,-6 2,6c-9,12 -8,21 9,47c11,17 25,29 30,26c6,-4 8,-1 6,7c-3,8 -10,13 -16,12c-6,-2 -9,4 -6,11c3,8 12,12 20,9c17,-6 18,9 2,25c-9,9 -9,12 1,12c7,0 11,6 8,15c-4,8 -1,17 5,21c6,4 8,3 4,-4c-3,-6 -2,-13 2,-16c5,-3 9,11 8,31c-1,34 2,38 32,44c38,8 49,16 37,26c-4,5 -10,2 -12,-4c-3,-7 -15,-13 -28,-13c-18,0 -22,4 -18,20c5,18 15,25 36,21c5,-1 6,3 2,9c-3,6 -11,8 -16,5c-5,-4 -9,-1 -9,4c0,6 12,11 26,11c17,0 23,-4 18,-12c-4,-7 -3,-9 1,-5c13,11 15,36 4,43c-6,4 -6,11 1,19c8,10 8,15 -2,21c-7,4 -10,4 -6,-1c4,-4 3,-15 -4,-22c-9,-11 -9,-16 3,-23c10,-7 9,-9 -7,-8c-21,2 -21,3 5,75c16,45 29,69 35,63c6,-6 14,-10 19,-10c5,0 2,7 -6,15c-16,15 -12,55 5,55c6,0 8,6 5,14c-7,16 27,69 37,59c4,-5 6,-1 4,7c-2,10 6,16 24,18c14,2 32,11 39,20c11,14 11,15 -1,5c-8,-7 -23,-13 -35,-13c-12,0 -26,-5 -33,-12c-19,-19 -14,3 8,40c11,18 18,37 15,43c-4,5 -2,9 3,9c5,0 9,6 9,13c0,6 3,19 5,27c3,8 3,12 1,8c-3,-5 -9,-8 -14,-8c-6,0 -7,6 -3,13c6,10 4,10 -7,0c-9,-9 -50,-13 -131,-13c-88,0 -118,3 -118,13c0,8 -4,7 -10,-3c-6,-10 -10,-11 -10,-2c0,6 -8,12 -17,12c-16,0 -16,-2 -3,-11c12,-9 11,-10 -7,-6c-18,4 -23,-2 -32,-39c-6,-23 -16,-46 -21,-49c-6,-4 -7,-11 -4,-17c5,-7 2,-8 -6,-3c-9,5 -10,2 -6,-13c4,-11 2,-23 -4,-27c-6,-3 -8,-11 -5,-16c3,-5 0,-6 -8,-3c-8,3 -17,-2 -20,-10c-4,-10 -1,-13 9,-9c10,4 12,0 8,-11c-3,-9 -11,-13 -18,-9c-7,4 -7,2 1,-8c10,-12 10,-18 1,-27c-7,-7 -9,-12 -5,-12c4,0 2,-10 -5,-22c-7,-13 -11,-27 -10,-31c1,-4 -5,-10 -14,-14c-11,-4 -12,-8 -4,-13c8,-5 8,-17 -4,-44c-8,-20 -18,-36 -21,-36c-3,0 -4,4 -1,8c12,20 -31,6 -47,-15c-14,-17 -22,-21 -31,-13c-7,5 -17,6 -21,2c-5,-4 -5,-2 -1,5c3,6 2,14 -4,18c-6,4 -7,11 -4,17c4,6 0,14 -7,19c-12,7 -12,9 0,9c11,0 10,4 -5,16c-19,15 -19,16 1,10c19,-6 19,-5 -1,11c-25,21 -45,74 -39,103c2,11 0,18 -6,15c-5,-4 -14,6 -19,20c-13,34 -13,38 2,29c7,-5 3,5 -10,20c-17,23 -20,32 -10,43c8,11 8,17 -1,26c-10,9 -11,8 -6,-8c3,-11 -1,-7 -10,8c-13,22 -14,31 -4,43c6,8 14,12 17,9c3,-2 -1,-11 -8,-20c-8,-10 -9,-15 -1,-15c6,0 11,5 11,11c0,5 5,7 11,3c7,-4 6,3 -2,17c-7,13 -13,27 -12,30c1,3 -5,6 -12,6c-10,0 -12,-4 -5,-12c8,-9 6,-14 -5,-19c-9,-3 -14,-2 -11,3c3,5 -2,15 -11,22c-12,10 -14,10 -9,2c6,-10 -22,-13 -124,-13c-102,0 -130,3 -124,13c6,10 4,10 -7,0c-7,-7 -22,-13 -34,-13c-16,0 -17,2 -5,10c12,7 11,9 -5,8c-15,-1 -20,-10 -21,-30c-1,-15 3,-25 8,-21c6,3 5,-5 -2,-17c-11,-20 -10,-22 4,-17c10,4 15,3 11,-3c-3,-6 -2,-10 4,-10c6,0 8,-6 5,-14c-3,-8 -13,-12 -22,-9c-14,4 -14,3 -3,-5c8,-6 21,-8 30,-4c9,3 13,2 9,-3c-4,-4 -3,-14 2,-20c6,-7 7,-20 4,-29c-6,-16 -8,-16 -28,1c-17,14 -16,12 4,-12c40,-48 43,-51 31,-28c-7,15 -8,24 -1,28c6,4 9,3 8,-2c-1,-4 3,-18 10,-30c7,-13 10,-23 6,-23c-3,0 -1,-6 5,-14c9,-10 9,-16 1,-21c-8,-5 -8,-10 0,-20c8,-10 7,-15 -2,-19c-7,-3 -3,-3 10,0c16,4 23,2 21,-8c-1,-7 3,-26 9,-41c7,-16 9,-33 6,-39c-4,-6 -2,-8 3,-5c6,4 16,-6 22,-23c6,-18 6,-28 1,-25c-6,4 -10,2 -10,-3c0,-6 7,-13 16,-16c13,-5 14,-9 4,-21c-10,-12 -10,-15 2,-15c11,0 35,-45 44,-82c1,-5 3,-11 4,-15c1,-5 3,-12 4,-18c1,-5 10,-28 20,-50c24,-51 26,-67 13,-84c-15,-18 -18,-43 -4,-34c7,4 8,0 3,-12c-4,-11 0,-25 10,-36c17,-19 6,-27 -12,-9c-6,6 -10,-4 -9,-29c0,-36 1,-38 16,-23c9,10 12,20 7,23c-5,3 -2,9 8,13c16,6 15,8 -2,28c-14,15 -16,22 -6,25c6,3 9,10 5,16c-11,18 -12,37 -3,37c5,0 12,-4 15,-10c3,-5 1,-10 -5,-10c-6,0 -2,-12 9,-27c20,-24 20,-28 6,-50c-9,-12 -13,-23 -10,-23c3,0 0,-10 -7,-22c-7,-13 -13,-25 -13,-28c-6,-24 -27,-62 -32,-57c-3,4 1,17 10,30c16,24 15,24 -8,13c-16,-7 -20,-13 -12,-18c8,-5 5,-8 -8,-8c-15,0 -17,-2 -6,-9c10,-6 10,-13 3,-28c-8,-15 -8,-24 1,-33c9,-10 9,-11 -2,-5c-10,6 -12,2 -7,-13c4,-11 2,-23 -3,-26c-6,-4 -8,-13 -5,-20c3,-8 0,-17 -7,-22c-8,-5 -10,-3 -4,6c6,9 4,11 -5,5c-10,-6 -12,-4 -7,8c3,9 3,18 -1,21c-14,9 -11,-33 3,-44c12,-10 12,-15 0,-34c-8,-13 -12,-26 -8,-29c3,-4 0,-7 -7,-7c-7,0 -10,-3 -7,-7c4,-3 2,-12 -4,-20c-6,-7 -9,-13 -6,-13c3,0 1,-14 -5,-31c-10,-28 -11,-29 -28,-14c-13,12 -20,13 -25,5c-4,-7 -2,-17 5,-23c10,-9 11,-9 6,1c-4,6 -3,12 2,12c16,0 20,-36 6,-55c-7,-10 -11,-22 -7,-28c3,-6 1,-7 -6,-3c-6,4 -9,12 -6,17c4,5 2,9 -3,9c-6,0 -12,7 -15,14c-4,11 -1,13 11,10c15,-5 15,-4 -1,9c-10,9 -20,21 -21,29c-1,7 -8,23 -14,36c-7,12 -9,22 -5,22c4,0 2,4 -5,9c-10,6 -7,10 12,15c25,6 37,26 16,26c-5,0 -10,-5 -10,-12c0,-6 -3,-9 -6,-6c-3,4 0,16 6,28c9,17 9,21 0,15c-6,-4 -15,-16 -19,-28c-7,-17 -8,-18 -14,-4c-4,11 2,25 15,37c12,11 18,20 13,20c-5,0 -17,-8 -27,-17c-11,-10 -18,-13 -17,-8c2,6 -5,27 -14,47c-9,21 -14,47 -12,58c2,11 0,18 -5,15c-5,-3 -11,-1 -15,5c-3,5 -1,10 4,10c6,0 11,5 11,11c0,5 -6,7 -12,3c-10,-5 -10,-4 0,7c10,11 8,17 -10,32c-21,17 -21,18 -3,12c16,-5 15,-1 -8,20c-15,14 -25,30 -22,36c4,5 2,9 -3,9c-5,0 -9,7 -9,15c0,8 4,15 8,15c5,0 -3,11 -16,25c-23,22 -35,53 -17,41c4,-2 15,1 24,8c17,12 19,39 4,53c-4,4 -6,1 -4,-7c2,-11 -4,-14 -21,-12c-33,3 -36,8 -21,27c11,13 10,14 -4,9c-9,-3 -17,-1 -17,5c-3,26 -4,30 -11,37c-13,12 -9,26 5,18c6,-4 1,5 -13,21c-14,16 -19,25 -12,21c8,-5 12,0 12,13c0,12 4,21 8,21c5,0 9,6 9,14c0,8 -6,12 -14,9c-7,-3 -10,-9 -7,-14c3,-5 0,-9 -6,-9c-6,0 -8,-5 -4,-12c4,-6 3,-8 -4,-4c-6,3 -9,15 -7,26c2,11 -1,20 -6,20c-6,0 -7,5 -4,10c4,6 11,8 16,5c5,-4 9,-1 9,5c0,6 5,8 10,5c18,-11 11,10 -11,33c-18,20 -39,22 -39,5c0,-4 3,-3 7,0c8,8 33,-12 33,-26c0,-6 -3,-7 -7,-4c-3,4 -12,2 -20,-5c-8,-6 -13,-7 -11,-2c1,5 -3,19 -10,32c-7,12 -10,22 -6,22c3,0 -1,11 -9,24c-12,18 -13,26 -4,35c16,16 16,78 0,78c-14,0 -18,-13 -5,-20c4,-2 2,-2 -5,-1c-6,2 -14,-2 -17,-9c-3,-7 -5,-6 -4,3c1,8 -5,29 -12,45c-7,17 -12,36 -11,43c1,6 -3,12 -9,12c-5,0 -10,9 -10,19c0,11 -4,23 -10,26c-15,9 -12,28 3,22c8,-3 14,1 14,8c0,8 -7,11 -16,7c-9,-3 -13,-2 -9,3c4,4 0,14 -8,23c-13,12 -13,16 -2,23c10,7 9,9 -5,9c-10,0 -16,4 -13,9c4,5 0,12 -6,14c-8,3 -6,6 5,6c9,1 17,-3 17,-9c0,-5 8,-2 18,8c22,20 19,31 -3,12c-10,-8 -15,-9 -15,-2c0,6 -7,9 -15,6c-15,-6 -37,33 -28,49c2,4 -2,7 -9,7c-9,0 -9,3 2,10c11,7 6,10 -20,10c-19,0 -109,1 -199,3c-102,1 -165,-2 -167,-8z"/>
   <path id="svg_6" d="m4369.000015,7975.444458c-21,-13 -25,-22 -22,-50c3,-18 0,-31 -5,-27c-5,3 -9,-1 -9,-9c0,-8 3,-12 6,-10c9,5 46,-24 39,-31c-4,-3 -15,-1 -25,4c-15,9 -19,7 -19,-8c0,-10 5,-16 10,-12c21,13 47,8 57,-10c7,-12 6,-18 -1,-18c-6,0 -4,-7 4,-16c17,-16 12,-39 -5,-28c-5,3 -7,9 -4,14c3,5 0,12 -6,15c-5,4 -8,14 -5,24c5,14 4,13 -8,-1c-16,-22 -30,-23 -22,-2c3,9 2,12 -5,9c-6,-4 -8,-20 -4,-38c5,-24 4,-28 -4,-17c-9,13 -11,12 -11,-5c0,-12 -5,-26 -11,-32c-14,-14 -39,-6 -35,10c1,7 1,9 -1,4c-8,-13 -23,3 -38,40c-9,20 -18,33 -22,30c-3,-4 0,-13 7,-22c7,-8 10,-21 7,-28c-3,-8 -1,-20 4,-28c7,-12 9,-12 9,0c0,11 3,11 15,1c12,-10 13,-16 4,-26c-14,-17 -33,-19 -23,-2c5,7 3,8 -6,3c-10,-6 -9,-11 6,-23c16,-13 17,-14 2,-9c-10,4 -18,2 -18,-4c0,-6 8,-9 18,-7c9,2 16,9 15,15c-1,6 5,17 13,24c14,12 14,9 0,-25c-9,-21 -16,-40 -16,-42c0,-2 -5,-4 -11,-4c-5,0 -7,5 -3,12c4,6 3,8 -3,5c-14,-9 -23,16 -17,48c5,28 -12,69 -26,60c-5,-3 -11,-1 -14,3c-6,10 -54,8 -63,-2c-4,-3 -12,-1 -19,5c-10,9 -15,7 -20,-4c-3,-10 -14,-14 -29,-11c-13,2 -27,-1 -30,-7c-11,-17 4,-24 25,-11c12,7 21,8 25,2c3,-6 -1,-10 -10,-10c-8,0 -19,-10 -24,-22c-5,-13 -21,-36 -35,-53c-22,-25 -28,-28 -36,-15c-5,8 -8,21 -5,28c3,8 5,21 5,29c0,9 3,13 6,10c12,-12 41,12 39,32c-1,22 -15,42 -15,23c0,-7 -7,-12 -17,-12c-13,0 -11,4 7,20c13,11 19,20 14,20c-5,0 0,8 11,16c18,14 18,16 4,27c-9,7 -15,22 -12,37c2,18 1,21 -6,10c-5,-8 -7,-18 -5,-22c3,-5 -12,-6 -34,-2c-35,5 -42,3 -53,-17c-7,-13 -14,-26 -14,-29c-5,-23 -31,-60 -39,-57c-18,6 -13,42 6,42c9,0 20,4 24,8c4,4 -5,7 -19,7c-15,0 -27,-5 -27,-11c0,-5 -5,-7 -10,-4c-7,4 -8,11 -2,18c16,20 20,86 5,80c-8,-3 -10,-15 -6,-35c4,-23 2,-34 -11,-43c-13,-10 -14,-14 -3,-18c8,-3 17,-15 20,-26c4,-16 1,-21 -11,-19c-10,2 -16,-3 -14,-10c1,-9 -5,-8 -23,4c-20,13 -23,19 -14,30c13,16 33,19 24,4c-3,-5 -1,-10 4,-10c14,0 14,17 0,25c-7,5 -6,12 4,23c11,12 12,24 6,41c-5,13 -12,21 -15,18c-3,-3 0,-16 7,-29c12,-23 12,-23 -10,-4c-11,11 -21,16 -21,12c0,-4 -9,-2 -19,3c-14,8 -22,7 -31,-4c-7,-8 -17,-12 -23,-8c-5,3 -8,2 -4,-3c3,-5 -2,-18 -10,-29c-13,-17 -15,-17 -9,-2c3,10 2,15 -3,12c-5,-3 -13,0 -18,7c-7,12 -9,16 -12,36c0,4 -15,13 -31,20c-17,8 -28,18 -24,23c3,5 1,9 -5,9c-5,0 -13,-5 -16,-10c-4,-6 -11,-8 -16,-5c-10,7 -11,3 -13,-77c-1,-40 -7,-63 -20,-77c-18,-20 -20,-20 -40,-4c-12,10 -15,11 -8,3c18,-21 15,-40 -10,-50c-14,-5 -17,-9 -8,-10c12,0 12,-2 2,-8c-7,-5 -15,-22 -18,-38c-15,-93 -28,-134 -42,-134c-12,0 -12,3 -1,18c13,15 12,16 -3,4c-9,-8 -22,-11 -27,-8c-5,4 -12,3 -15,-2c-3,-5 0,-9 7,-10c7,0 25,-4 42,-9l30,-9l-23,-19c-12,-11 -22,-23 -22,-28c0,-4 10,1 21,12c17,16 25,17 40,8c12,-7 14,-14 7,-18c-6,-4 0,-6 15,-6c14,1 23,5 20,10c-2,4 1,7 6,7c6,0 11,-4 11,-8c0,-4 24,-8 54,-8c34,1 52,4 48,11c-3,5 1,4 10,-3c17,-14 106,-14 114,0c3,5 10,5 16,2c7,-4 8,-2 4,5c-6,9 -12,9 -24,-1c-10,-7 -7,-1 6,13c12,14 22,30 22,36c0,13 -32,12 -42,-1c-3,-5 -15,-11 -25,-12c-14,-3 -18,4 -19,32c-1,24 2,31 8,22c6,-9 7,-3 3,15c-4,19 -2,26 4,22c7,-3 8,0 5,10c-4,8 -1,22 6,30c7,8 9,15 4,15c-5,0 -3,4 4,9c7,4 15,17 16,27c2,12 11,19 24,18c12,0 19,3 17,7c-3,4 8,9 25,11c16,2 27,1 24,-4c-5,-7 10,-12 29,-9c4,1 0,-13 -10,-31c-9,-18 -16,-37 -15,-41c1,-5 -2,-6 -7,-3c-5,3 -12,-1 -15,-10c-3,-8 -2,-12 4,-9c16,10 12,-12 -6,-29c-8,-9 -11,-16 -5,-16c18,0 12,-38 -6,-49c-10,-6 -14,-11 -9,-11c5,0 3,-6 -3,-14c-8,-10 -9,-16 -1,-21c6,-3 7,-12 3,-18c-4,-7 1,-6 10,2c13,10 14,17 7,26c-8,9 -8,15 0,20c5,3 10,-1 10,-9c0,-9 4,-16 10,-16c5,0 7,-6 5,-13c-4,-9 11,-13 53,-15c53,-3 60,0 92,30c18,18 30,27 26,21c-4,-8 -1,-13 8,-13c10,0 13,-6 10,-15c-4,-8 -10,-15 -16,-15c-5,0 -6,5 -3,10c3,6 1,10 -4,10c-6,0 -11,-4 -11,-9c0,-15 19,-23 33,-14c18,11 37,13 37,2c0,-5 29,-8 64,-6c35,1 62,5 59,10c-2,4 -10,4 -16,1c-7,-4 -1,5 12,19c13,15 33,29 43,33c10,3 16,10 13,15c-4,5 -1,9 5,9c6,0 10,-8 8,-17c-2,-10 7,-29 20,-43c16,-18 22,-33 18,-52c-4,-22 -2,-26 12,-21c16,6 16,5 0,-13c-16,-18 -15,-19 9,-21c19,-1 22,1 12,8c-11,7 -11,9 -1,9c19,0 45,28 37,39c-7,12 32,34 45,26c6,-4 9,-3 8,2c-2,5 12,26 31,48c18,22 30,33 25,25c-7,-13 -6,-13 10,-1c10,8 13,17 7,20c-6,4 -6,12 -1,21c11,17 11,16 15,-27c2,-25 -2,-33 -14,-33c-12,0 -13,-2 -3,-9c11,-6 10,-11 -3,-25c-15,-14 -12,-18 13,-15c4,0 5,8 4,17c-3,13 -1,14 10,4c12,-9 15,-9 15,3c0,8 -4,12 -9,9c-4,-3 -8,-1 -8,5c0,5 6,12 13,14c9,4 9,6 -1,6c-7,1 -10,6 -7,11c13,21 15,61 5,80c-8,14 -8,20 0,20c6,0 8,4 5,10c-3,5 3,17 14,27c15,13 17,19 8,25c-8,5 -7,8 6,8c9,0 17,5 17,11c0,6 -7,8 -16,5c-11,-4 -15,-2 -11,6c2,7 0,40 -5,73c-6,33 -11,85 -13,116c-1,31 -6,62 -9,68c-9,13 -26,5 -26,-12c0,-8 3,-8 9,2c12,18 19,1 12,-28c-6,-23 -8,-22 -25,16c-21,48 -41,56 -77,34z"/>
   <path id="svg_7" d="m6255.000015,7986.444458c-11,-11 8,-22 20,-12c11,9 14,7 12,-9c-1,-13 -7,-20 -17,-18c-8,1 -15,-5 -15,-13c0,-8 -4,-18 -10,-22c-6,-5 -6,-8 2,-8c6,0 15,5 18,10c4,6 11,8 16,4c5,-3 9,-2 8,3c-1,4 0,11 1,16c4,13 7,27 9,39c0,6 7,3 15,-8c13,-16 13,-20 0,-27c-8,-4 -14,-15 -14,-22c0,-8 -4,-15 -10,-15c-5,0 -9,-3 -8,-7c1,-5 -3,-18 -10,-29c-6,-12 -8,-25 -4,-29c4,-5 1,-5 -7,0c-10,6 -12,2 -6,-14c4,-13 2,-21 -5,-21c-6,0 -9,-3 -7,-7c3,-5 1,-17 -4,-28c-6,-17 -8,-17 -8,-2c-1,9 -5,17 -11,17c-6,0 -6,-9 -1,-23c7,-17 6,-24 -3,-24c-19,0 -13,45 8,60c23,17 29,57 9,64c-7,3 -10,9 -7,14c3,5 -2,9 -11,9c-9,0 -14,4 -11,9c3,4 -6,6 -19,3c-14,-2 -31,1 -38,7c-14,11 -27,5 -27,-13c0,-6 4,-5 9,2c7,11 9,11 14,-2c3,-8 -1,-22 -9,-31c-10,-10 -11,-15 -3,-15c9,0 9,-3 -1,-15c-6,-8 -8,-20 -4,-27c6,-11 5,-11 -8,0c-13,10 -18,10 -24,1c-5,-8 -3,-9 6,-4c10,6 12,4 7,-7c-3,-9 1,-24 9,-35c9,-10 13,-12 9,-5c-3,6 -2,12 3,12c6,0 12,-7 16,-15c3,-8 13,-15 23,-15c14,0 15,2 5,9c-11,7 -10,10 3,15c24,9 28,8 21,-9c-3,-8 2,-19 12,-24c9,-5 14,-13 10,-17c-4,-4 -14,-1 -23,6c-13,11 -14,10 -9,-4c3,-9 11,-16 18,-16c7,0 8,-3 1,-8c-6,-4 -11,-16 -10,-27c0,-11 -5,-20 -12,-20c-6,0 -15,-4 -20,-9c-4,-5 -3,-6 3,-3c13,7 28,-34 16,-43c-4,-3 -7,-15 -6,-27c1,-12 -3,-27 -8,-35c-8,-10 -9,-10 -5,2c3,10 -2,16 -14,16c-13,0 -23,-12 -30,-34c-6,-18 -13,-31 -16,-29c-2,3 4,26 15,50c11,25 18,48 15,51c-3,3 9,30 26,61c17,30 27,55 21,55c-5,0 -10,7 -10,16c0,8 -4,13 -9,10c-5,-3 -12,1 -15,10c-3,8 -10,13 -15,10c-14,-9 -42,5 -34,18c3,6 2,7 -2,3c-13,-11 -15,-38 -3,-31c7,4 8,2 4,-5c-5,-7 -17,-9 -29,-5c-21,6 -21,6 -3,-8c12,-10 15,-17 8,-22c-6,-3 -20,4 -31,16c-24,25 -27,40 -7,32c8,-3 16,-1 19,3c3,5 -6,9 -21,9c-15,-1 -26,4 -25,9c1,7 -15,10 -37,9c-22,-1 -37,3 -34,7c3,5 -2,9 -11,9c-9,0 -14,-4 -11,-9c3,-5 -1,-12 -10,-15c-23,-9 -26,-8 -19,7c4,6 -3,1 -14,-13c-11,-14 -21,-20 -21,-14c0,24 -28,8 -41,-23c-7,-18 -17,-33 -22,-33c-5,0 -4,-7 3,-15c9,-10 9,-15 1,-15c-6,0 -10,-3 -10,-7c3,-20 -2,-24 -16,-13c-13,11 -14,10 -10,-3c5,-10 1,-15 -12,-14c-14,2 -18,-4 -16,-25c1,-21 -2,-26 -15,-21c-14,4 -15,3 -2,-6c16,-11 8,-27 -9,-16c-14,8 -14,35 -1,35c6,0 10,6 10,14c0,8 16,28 35,45c20,17 33,31 29,31c-3,0 -1,7 6,15c7,8 9,15 4,15c-4,0 -3,5 4,12c15,15 -12,48 -38,48c-20,0 -53,-33 -43,-43c3,-4 -1,-7 -10,-7c-10,0 -15,-7 -12,-19c2,-11 -3,-27 -10,-38c-9,-11 -15,-13 -16,-5c-5,36 -2,47 11,44c8,-1 4,6 -9,16c-13,11 -21,24 -17,31c5,7 -2,11 -20,11c-22,0 -25,3 -21,23c5,19 4,20 -6,6c-7,-9 -17,-14 -24,-12c-15,6 -47,-54 -33,-62c6,-4 8,-11 5,-16c-4,-5 -1,-9 5,-9c7,0 10,-7 6,-15c-3,-8 -2,-15 2,-15c4,0 8,-9 9,-20c1,-11 -1,-18 -5,-16c-4,3 -8,-7 -9,-22c0,-15 1,-19 4,-9c2,9 9,17 14,17c6,0 8,-4 5,-9c-4,-5 0,-12 6,-14c10,-4 10,-6 1,-6c-7,-1 -13,-6 -13,-12c0,-5 5,-7 10,-4c16,10 11,-1 -7,-16c-9,-8 -14,-9 -11,-4c4,6 -7,18 -23,28c-17,9 -27,12 -24,7c3,-6 1,-10 -4,-10c-6,0 -11,-5 -11,-11c0,-5 4,-7 10,-4c6,3 7,-1 4,-12c-5,-17 -5,-17 6,0c14,21 27,22 27,2c0,-8 -5,-15 -11,-15c-6,0 -17,-9 -24,-21c-8,-13 -19,-18 -29,-15c-10,4 -13,2 -10,-8c3,-7 0,-19 -6,-26c-9,-10 -9,-11 1,-6c6,4 12,2 12,-3c0,-15 33,-14 49,2c9,7 12,8 7,0c-4,-7 0,-10 11,-8c10,2 22,4 27,4c5,1 3,8 -4,16c-8,10 -9,15 -2,15c6,0 20,10 32,22c11,12 20,17 20,12c0,-6 -4,-14 -10,-20c-6,-6 -5,-15 1,-24c9,-13 10,-12 5,3c-6,20 0,22 18,5c11,-11 11,-14 -1,-23c-10,-7 -3,-10 26,-10c24,0 47,7 60,19c18,16 24,17 34,6c10,-10 8,-12 -7,-6c-16,6 -17,4 -5,-10c8,-10 15,-12 17,-5c2,6 9,8 15,4c15,-9 208,-10 213,-1c3,4 11,5 18,2c8,-3 17,-1 21,5c4,7 -1,8 -12,4c-15,-5 -16,-3 -6,7c11,11 18,11 45,-3c18,-10 26,-16 17,-13c-9,2 -21,1 -28,-4c-7,-4 10,-7 38,-7c28,1 51,5 51,10c0,4 -10,5 -22,1l-21,-6l21,27c12,15 22,34 22,41c0,8 5,14 11,14c6,0 9,-7 6,-15c-4,-8 -2,-17 3,-20c6,-4 10,-1 10,6c0,18 10,5 15,-20c2,-11 0,-21 -6,-21c-12,0 23,-36 36,-37c6,0 17,-2 25,-4c11,-3 16,8 20,48c3,29 13,61 22,72c16,19 16,20 0,24c-14,4 -13,5 3,6c17,1 18,3 5,11c-13,8 -13,11 -1,19c7,5 11,13 8,18c-3,5 -1,15 4,23c8,12 12,12 16,2c2,-6 10,-9 16,-5c7,4 5,-4 -4,-18c-12,-18 -15,-38 -12,-69c5,-39 4,-43 -10,-32c-9,8 -18,9 -21,4c-3,-6 6,-13 19,-16c14,-4 23,-11 20,-16c-4,-6 -9,-8 -13,-6c-4,2 -8,-7 -8,-20c-1,-13 2,-24 7,-24c5,0 8,3 8,8c-3,18 2,32 12,32c5,0 8,-4 5,-8c-6,-11 70,-31 114,-30c19,1 30,3 24,5c-7,2 9,24 35,48c37,35 44,46 34,56c-18,18 -16,32 2,25c18,-6 21,19 3,30c-7,5 -8,3 -3,-6c6,-10 4,-12 -9,-7c-10,4 -15,3 -11,-3c3,-6 1,-10 -4,-10c-6,0 -10,-6 -9,-12c2,-7 -3,-12 -9,-10c-7,1 -13,-4 -13,-12c0,-21 -42,-48 -54,-36c-22,22 -14,40 21,49c20,6 41,7 47,4c6,-4 5,0 -1,8c-11,13 -9,18 12,29c13,7 22,16 20,20c-3,4 2,13 10,20c8,7 13,16 10,20c-3,4 2,10 10,14c9,3 19,-3 25,-14c9,-16 8,-20 -5,-20c-9,0 -13,5 -10,10c10,17 1,11 -17,-9c-14,-17 -14,-20 -2,-25c9,-3 12,-1 9,4c-3,6 0,10 8,10c18,0 12,-36 -11,-62c-11,-13 -12,-18 -2,-18c9,0 9,-4 2,-12c-12,-15 -12,-25 -1,-58l9,-25l-19,22c-18,22 -19,22 -24,3c-3,-11 0,-18 7,-17c6,1 10,-2 9,-8c-1,-5 19,-11 43,-13c31,-1 44,2 44,11c0,7 12,26 28,43c15,17 38,45 51,62c24,32 48,35 32,4c-4,-9 -6,-23 -3,-31c2,-7 -2,-17 -9,-22c-11,-7 -10,-9 4,-9c10,0 17,-7 17,-17c0,-16 -2,-16 -11,-3c-9,13 -10,13 -6,0c2,-8 10,-15 18,-15c8,-1 13,-6 12,-11c-1,-6 4,-11 12,-11c8,0 12,4 9,9c-3,4 2,8 10,8c9,0 16,-3 16,-7c0,-5 18,-8 40,-8c22,0 40,4 40,9c0,5 7,3 15,-4c12,-10 13,-8 10,11c-5,26 -19,37 -56,45c-19,4 -26,11 -24,27c1,12 3,28 4,35c0,7 6,10 12,7c6,-4 8,-14 5,-22c-7,-18 12,-46 25,-38c4,3 5,13 2,22c-4,11 -3,14 5,9c8,-5 10,-2 5,9c-4,11 -8,13 -13,6c-9,-16 -31,35 -23,55c5,14 8,13 20,-7c8,-13 12,-17 9,-8c-2,9 1,22 7,29c9,10 9,11 0,6c-6,-3 -14,-2 -18,4c-3,5 -1,10 6,10c7,0 9,3 6,7c-4,3 -2,12 3,19c18,20 21,57 5,51c-14,-6 -39,16 -30,25c3,2 -2,5 -10,5c-8,0 -12,-4 -9,-9c8,-13 -11,-9 -25,5c-10,10 -11,8 -5,-6c4,-10 2,-17 -4,-15c-6,2 -32,-17 -58,-42c-26,-25 -42,-35 -36,-23c7,12 17,23 24,26c10,3 10,7 0,20c-8,9 -10,22 -6,28c4,7 3,9 -3,6c-5,-4 -20,5 -31,18c-16,19 -18,26 -9,32c10,6 9,12 -5,26c-18,17 -18,17 -14,-8c3,-18 -1,-28 -15,-35c-10,-6 -19,-17 -19,-25c0,-8 -9,-24 -21,-36c-16,-16 -23,-18 -35,-8c-8,6 -14,8 -14,5c0,-4 -14,9 -31,28c-16,19 -36,33 -44,30c-7,-3 -16,-1 -20,5c-3,6 -14,11 -23,11c-15,0 -15,-2 -2,-10c13,-9 7,-14 -12,-11c-5,0 -8,-4 -8,-10c0,-6 -6,-9 -12,-6c-7,2 -21,0 -30,-5c-12,-5 -18,-5 -18,1c0,14 36,32 44,23c4,-3 4,2 0,12c-7,17 -3,18 52,13c32,-3 50,-3 39,-1c-11,3 -27,8 -35,11c-41,16 -115,-34 -104,-71c5,-14 3,-16 -7,-11c-8,5 -11,5 -7,0c4,-4 3,-15 -4,-24c-6,-9 3,-1 21,17c18,17 35,32 38,32c6,0 -8,-17 -55,-68c-7,-7 -9,-18 -6,-24c4,-6 -1,-8 -11,-6c-19,3 -31,38 -13,38c6,0 8,11 4,25c-4,17 0,30 16,46c13,12 16,18 8,14c-9,-6 -7,3 7,25c12,19 27,36 33,37c7,1 7,0 0,-4c-5,-2 -10,-9 -10,-15c0,-6 6,-5 15,2c11,9 13,16 5,24c-12,12 -13,29 -1,22c5,-3 11,4 14,15c3,12 9,19 14,16c4,-3 17,2 28,10c19,15 19,15 -4,8c-17,-5 -21,-4 -16,5c4,7 19,10 33,7c23,-5 25,-4 9,7c-9,7 -14,16 -10,19c3,4 12,2 20,-4c7,-6 13,-8 13,-4c0,4 -8,14 -17,21c-14,11 -14,13 -3,11c8,-2 12,-2 7,0c-4,3 -5,8 -3,11c2,4 -13,8 -35,8c-21,1 -39,-3 -39,-8c0,-5 4,-7 9,-4c5,4 12,0 14,-6c4,-10 6,-10 6,0c1,6 5,12 11,12c5,0 8,-10 6,-22c-3,-13 -5,-25 -5,-27c-1,-3 -7,2 -13,11c-7,9 -25,23 -39,32c-24,15 -28,15 -42,1c-17,-17 -31,-20 -22,-5c3,6 3,11 -2,12c-23,4 -63,4 -68,0zm-200,-323c0,-8 -6,-13 -13,-11c-10,2 -10,-2 -3,-16c7,-13 7,-22 -1,-30c-7,-7 -8,-12 -4,-12c5,0 3,-7 -4,-15c-7,-9 -8,-15 -2,-15c6,0 7,-13 2,-34c-4,-19 -5,-38 -1,-42c3,-4 1,-4 -5,-1c-7,4 -19,-5 -29,-19c-13,-20 -19,-23 -31,-13c-8,6 -14,7 -14,2c0,-5 -8,-10 -17,-10c-13,0 -11,4 8,16c13,9 34,26 47,38c12,12 22,17 22,11c0,-6 3,-8 7,-5c3,4 -2,16 -12,27c-17,19 -17,21 1,43l19,22l-22,-18c-13,-11 -23,-14 -27,-8c-4,6 10,19 31,30c45,24 40,27 -10,6c-19,-8 -37,-20 -40,-27c-3,-9 -9,-7 -20,7c-8,11 -13,24 -10,29c4,5 1,6 -5,2c-9,-5 -9,-13 -2,-26c12,-23 44,-42 54,-33c3,3 6,2 6,-3c0,-5 -14,-17 -31,-26c-16,-10 -27,-13 -24,-8c9,15 -5,12 -21,-5c-9,-8 -19,-15 -23,-15c-6,0 -7,62 -1,85c1,6 2,14 1,18c-1,5 4,5 10,1c8,-4 9,1 4,17c-7,21 -6,22 9,10c9,-7 16,-10 16,-6c0,4 10,1 23,-7c30,-21 65,-6 79,32c10,31 33,37 33,9z"/>
   <path id="svg_8" d="m2120.000015,7935.444458c0,-5 -12,-12 -27,-16c-16,-3 -36,-14 -46,-23c-16,-15 -20,-14 -46,1c-30,18 -57,24 -31,7c10,-7 11,-10 3,-11c-7,-1 -17,-2 -23,-3c-11,-1 -14,-11 -7,-29c4,-8 6,-7 6,2c1,11 5,10 17,-5c14,-18 14,-18 3,5c-10,21 -9,23 5,18c10,-4 15,-3 11,3c-3,6 -2,10 4,10c26,0 17,-23 -28,-76c-27,-32 -47,-63 -44,-69c3,-5 0,-4 -8,3c-12,11 -11,15 3,26c10,7 15,16 12,19c-4,3 -12,0 -20,-7c-14,-15 -15,-56 -1,-56c4,0 6,-4 2,-10c-3,-5 -13,-7 -23,-4c-15,5 -15,4 1,-6c14,-9 16,-15 6,-26c-13,-16 -34,-19 -24,-4c3,5 2,18 -4,27c-8,14 -9,10 -8,-18c1,-26 6,-35 15,-31c10,3 12,-4 8,-29c-11,-70 -11,-71 14,-136c7,-17 5,-21 -8,-19c-9,2 -18,9 -20,16c-3,8 0,10 8,5c9,-5 11,-4 6,4c-4,6 -12,9 -17,6c-7,-5 -7,-16 0,-54c1,-2 7,2 15,8c11,10 20,6 42,-16c15,-15 37,-29 49,-31c11,-2 31,-4 45,-6c14,-2 31,-4 38,-4c7,-1 10,-7 7,-12c-5,-8 -11,-8 -20,0c-9,8 -15,8 -20,0c-4,-7 -12,-7 -26,0c-16,9 -19,7 -19,-10c0,-24 17,-26 42,-3c19,17 26,5 8,-13c-7,-7 0,-11 24,-11c19,0 33,4 30,8c-2,4 2,10 8,12c9,4 10,6 1,6c-6,1 -15,-3 -18,-9c-3,-5 -14,-10 -23,-10c-13,0 -11,4 6,16c17,12 20,19 12,29c-8,9 -3,15 20,25c16,7 28,16 25,20c-3,5 4,6 16,3c16,-5 18,-8 7,-15c-11,-8 -10,-9 1,-6c8,2 15,12 17,22c2,13 -2,16 -14,12c-15,-5 -15,-5 -1,6c9,7 21,23 28,36c9,17 16,20 25,13c8,-7 11,-3 11,15c-2,25 -10,38 -26,40c-5,1 -10,3 -11,4c-2,1 -13,4 -26,5c-17,2 -26,-5 -33,-22c-5,-14 -7,-29 -4,-33c6,-10 -34,-35 -42,-26c-3,3 -13,-5 -23,-16l-17,-22l-13,24c-14,27 -20,120 -8,120c4,0 5,6 2,14c-3,7 2,31 12,52c9,22 16,43 15,48c-1,5 4,6 11,4c7,-3 21,4 31,14c9,10 13,18 8,18c-6,0 -13,-4 -16,-10c-3,-5 -12,-10 -18,-10c-7,0 -3,7 7,15c11,8 17,15 13,15c-4,0 -3,9 3,20c6,11 17,20 25,20c7,0 17,5 21,12c4,7 3,8 -4,4c-7,-4 -12,-4 -12,1c0,17 75,50 95,42l20,-8l-20,-1c-11,-2 -27,-2 -35,-1c-12,2 -12,0 -1,-7c9,-6 10,-12 3,-16c-6,-4 -9,-13 -5,-21c3,-8 2,-15 -1,-15c-4,0 -10,10 -15,22l-8,22l-5,-22c-4,-12 -3,-20 2,-17c9,5 22,-36 14,-44c-3,-3 -10,1 -15,9c-9,13 -10,13 -6,0c2,-8 15,-15 29,-15c14,0 32,-6 40,-13c18,-14 48,-6 48,13c0,21 19,28 34,13c15,-16 4,-40 -24,-51c-12,-4 -12,-6 2,-6c9,-1 20,-6 24,-13c4,-7 3,-8 -4,-4c-7,4 -12,1 -12,-8c0,-9 -5,-16 -11,-16c-5,0 -7,-5 -3,-12c5,-7 3,-8 -6,-3c-21,13 -57,12 -57,-1c0,-9 7,-10 23,-4c16,6 24,5 28,-5c3,-8 1,-17 -4,-20c-6,-4 -10,-15 -10,-26c0,-11 -4,-17 -10,-14c-5,3 -10,1 -10,-4c0,-6 4,-11 9,-11c6,0 9,-18 8,-41c-2,-32 3,-46 23,-66c19,-20 21,-24 5,-15c-19,10 -27,12 -42,12c-5,0 -2,4 5,8c9,6 7,13 -10,27c-13,11 -17,13 -10,5c16,-19 16,-35 -1,-21c-10,8 -14,7 -14,-4c0,-8 3,-13 5,-10c7,7 33,-16 28,-24c-6,-9 121,-8 130,1c4,4 14,2 22,-5c13,-10 15,-9 9,5c-4,13 -2,16 11,11c9,-3 22,-9 27,-13c24,-17 40,-6 41,26c0,18 -3,31 -8,28c-4,-3 -8,-16 -8,-30c0,-27 -3,-29 -28,-13c-17,11 -16,14 16,45c19,19 39,34 45,34c5,0 7,9 4,20c-3,11 -1,23 4,26c5,3 6,10 3,16c-5,7 -2,8 6,3c10,-6 12,-4 7,8c-4,10 -1,17 6,17c8,0 6,4 -3,10c-13,8 -12,10 3,10c9,0 17,5 17,12c0,6 -3,8 -7,5c-9,-10 -33,62 -26,82c4,12 2,12 -9,-2c-14,-18 -16,-18 -47,9c-29,24 -36,26 -53,15c-18,-11 -20,-11 -15,4c4,9 3,14 -3,10c-6,-3 -10,-14 -11,-23c0,-11 -2,-12 -6,-4c-3,8 -11,4 -25,-13c-11,-14 -25,-25 -31,-25c-7,0 -6,4 3,10c8,5 11,10 6,10c-5,0 -1,9 9,20c10,11 15,23 12,27c-4,3 -7,1 -7,-7c0,-10 -3,-10 -15,0c-8,7 -12,17 -8,23c4,6 1,7 -6,2c-10,-6 -11,-3 -2,14c7,11 8,21 4,21c-4,0 -1,5 7,10c9,6 10,10 3,10c-6,0 -10,8 -8,18c2,12 -7,25 -26,36c-16,9 -29,22 -29,27c0,6 -6,7 -12,2c-21,-12 -58,-15 -58,-3c0,5 -4,10 -10,10c-5,0 -10,-4 -10,-9z"/>
   <path id="svg_9" d="m4787.000015,7857.444458c-4,-3 -7,-15 -7,-25c0,-10 -5,-18 -11,-18c-5,0 -7,5 -3,12c4,6 3,8 -4,5c-5,-4 -8,-16 -5,-27c3,-12 0,-20 -6,-20c-7,0 -9,6 -5,13c4,7 3,9 -2,4c-5,-5 -9,-18 -9,-30c0,-19 -6,-22 -41,-22c-40,1 -57,-18 -28,-29c8,-3 11,-12 8,-21c-3,-8 -11,-12 -18,-8c-6,3 -2,-3 8,-15c19,-22 32,-30 22,-14c-2,4 -1,14 5,22c7,12 9,10 9,-7c0,-12 -5,-25 -10,-28c-6,-4 -8,-11 -5,-16c4,-5 1,-9 -4,-9c-6,0 -10,-6 -8,-12c1,-7 -5,-12 -13,-10c-12,3 -13,1 -2,-9c6,-7 12,-20 12,-29c0,-10 -3,-11 -8,-3c-4,6 -7,-8 -8,-33c0,-24 4,-44 8,-44c5,0 4,-9 -2,-20c-9,-16 -8,-19 6,-13c13,5 15,3 9,-8c-8,-12 -6,-12 8,0c11,9 17,10 17,2c0,-15 73,-14 88,1c8,8 12,8 12,1c0,-5 14,-10 30,-9c33,1 37,19 5,23c-16,3 -17,1 -5,-7c9,-6 10,-10 3,-10c-16,0 -26,17 -13,25c5,3 14,14 20,24c8,16 6,17 -18,13c-15,-2 -33,-10 -41,-16c-11,-8 -15,-8 -18,2c-3,6 -10,9 -16,5c-8,-5 -8,-2 0,9c7,8 11,17 8,20c-3,3 1,24 9,47c9,23 15,43 16,46c0,3 0,6 1,8c0,1 2,11 4,21c6,30 31,49 69,51c42,3 57,-12 31,-32c-11,-7 -15,-13 -11,-13c5,0 3,-6 -3,-13c-6,-8 -7,-17 -3,-22c4,-4 -5,-6 -20,-3c-15,3 -25,1 -22,-3c3,-5 12,-9 21,-9c11,0 14,-7 10,-27c-6,-32 15,-120 33,-136c10,-9 11,-9 5,3c-7,12 -6,13 6,4c25,-19 73,-9 121,25c26,18 49,40 52,47c3,8 11,14 17,14c8,0 7,-5 -2,-17c-12,-14 -12,-15 0,-9c10,7 12,3 6,-14c-5,-16 -4,-20 5,-15c6,4 10,16 7,26c-3,10 0,20 7,23c7,3 7,5 -1,5c-19,1 -16,31 3,31c9,0 12,5 8,12c-10,16 -13,48 -4,48c7,0 6,21 -5,73c-4,22 -2,27 7,21c10,-6 10,-4 0,7c-11,12 -14,12 -23,-1c-8,-12 -10,-9 -5,10c4,22 4,23 -8,8c-16,-22 -30,-23 -22,-2c3,8 2,13 -3,10c-5,-3 -14,1 -21,9c-7,8 -17,12 -23,8c-6,-3 -7,-1 -3,5c4,7 2,12 -3,12c-6,0 -11,5 -11,10c0,6 7,10 15,10c8,0 15,5 15,12c0,6 3,8 6,5c4,-4 2,-13 -5,-20c-9,-11 -8,-17 2,-25c10,-9 13,-4 12,21c0,25 -4,32 -20,32c-11,0 -22,-4 -24,-10c-2,-5 -11,-16 -20,-23c-9,-8 -11,-11 -4,-8c17,9 27,-14 13,-27c-10,-9 -11,-9 -6,3c6,12 5,11 -6,-1c-7,-9 -21,-15 -31,-13c-12,1 -17,-2 -14,-11c4,-8 -2,-12 -19,-11c-15,0 -22,6 -19,13c2,7 1,12 -3,12c-19,-3 -25,2 -12,11c12,7 10,9 -7,7c-19,-1 -20,-3 -9,-17c22,-25 28,-40 17,-40c-6,0 -11,7 -11,15c0,8 -7,15 -15,15c-21,0 -19,27 4,39c10,6 20,8 23,6c3,-3 4,5 2,18c-1,12 -3,29 -3,37c-1,11 -3,12 -9,3c-6,-10 -14,-9 -34,1c-20,10 -29,11 -39,2c-9,-8 -10,-8 -5,2c8,13 4,16 -7,5z"/>
   <path id="svg_10" d="m7003.000015,7817.444458c-32,-13 -48,-31 -17,-19c8,3 21,0 28,-7c14,-13 10,-37 -5,-37c-6,0 -7,5 -4,10c3,6 2,10 -3,10c-5,0 -12,-9 -15,-20c-3,-11 -13,-20 -22,-20c-10,0 -14,5 -9,13c4,6 -5,1 -19,-12c-31,-28 -33,-33 -12,-25c8,4 15,11 15,17c0,6 3,7 7,3c4,-4 -10,-22 -32,-41c-21,-19 -34,-35 -27,-35c6,0 16,8 21,18c6,9 11,12 11,7c0,-6 -5,-16 -12,-23c-7,-7 -13,-38 -14,-70c0,-31 -4,-66 -8,-77l-8,-20l17,20c17,20 17,20 11,-2c-4,-12 -2,-24 5,-29c8,-5 9,-3 4,7c-8,12 -6,12 9,0c9,-8 13,-17 9,-20c-12,-9 -14,-31 -3,-31c6,0 10,6 10,13c0,8 4,7 10,-3c7,-11 10,-11 10,-2c0,8 5,10 13,5c15,-9 67,-11 61,-2c-2,4 3,10 12,13c8,3 12,2 9,-3c-3,-5 0,-13 6,-17c7,-4 9,-3 6,4c-4,5 6,23 23,39c57,53 31,78 -41,38c-45,-24 -54,-24 -50,-2c0,4 -3,7 -9,7c-5,0 -10,7 -10,15c0,8 9,15 19,15c28,0 36,19 17,36c-9,8 -11,9 -6,2c15,-18 12,-28 -6,-28c-13,0 -15,7 -10,32c3,18 11,37 17,43c7,7 8,4 3,-9c-5,-13 -4,-17 3,-13c6,4 14,19 18,34c7,31 23,53 36,53c15,0 10,-28 -7,-34c-8,-3 -12,-10 -9,-16c3,-5 0,-10 -7,-10c-8,0 -6,-5 5,-11c9,-6 15,-14 12,-19c-3,-5 7,-6 22,-3c16,3 33,6 40,6c6,0 9,7 5,15c-3,9 -1,13 5,9c6,-4 10,11 11,38c1,24 -2,47 -8,50c-6,4 -8,10 -5,15c5,8 -32,23 -52,21c-7,-1 -13,3 -13,9c0,5 6,10 13,10c8,0 7,4 -3,10c-13,9 -13,10 0,10c8,0 23,6 32,14c15,11 14,13 -13,13c-20,0 -26,-3 -17,-9c9,-6 5,-8 -12,-6c-14,2 -27,6 -30,9c-3,3 -20,0 -37,-8z"/>
   <path id="svg_11" d="m3025.000015,7814.444458c3,-5 0,-12 -5,-15c-12,-7 -34,-55 -32,-67c1,-5 -6,-8 -15,-8c-15,0 -15,-1 2,-13c21,-16 12,-39 -13,-31c-15,5 -15,5 1,-6c14,-9 15,-15 5,-33c-12,-22 -14,-28 -17,-47c0,-5 -5,-10 -10,-10c-5,0 -8,12 -6,26c2,19 -1,24 -14,20c-14,-5 -14,-5 -1,7c16,13 22,28 25,68c2,20 -3,30 -22,38c-15,7 -22,7 -18,1c4,-6 -6,-10 -24,-10c-16,0 -32,-6 -34,-12c-4,-10 -6,-10 -6,0c-1,6 -8,12 -17,12c-9,0 -12,5 -8,13c5,9 4,9 -6,0c-11,-10 -17,-10 -29,0c-14,11 -14,10 -2,-5c7,-10 10,-18 7,-18c-4,0 -19,8 -33,18c-15,9 -24,11 -20,5c5,-7 4,-13 -2,-13c-5,0 -12,6 -14,13c-3,7 -6,5 -6,-5c-1,-10 -5,-19 -11,-19c-5,-1 -16,-2 -22,-3c-7,-1 -12,-7 -10,-14c1,-7 -2,-12 -7,-12c-6,0 -9,9 -8,19c0,11 5,17 9,15c4,-3 8,-1 8,4c0,9 -19,21 -42,27c-5,2 -11,4 -15,5c-5,1 -12,2 -16,1c-5,-1 -6,2 -3,7c2,4 0,14 -5,22c-9,13 -10,13 -8,0c3,-22 -12,-51 -22,-44c-5,3 -6,-1 -4,-9c7,-18 -42,-70 -57,-61c-7,4 -8,3 -4,-5c4,-6 12,-9 18,-5c5,3 3,-8 -6,-24c-9,-17 -16,-36 -16,-43c0,-6 -8,-18 -17,-26c-10,-8 -12,-12 -5,-8c15,7 15,4 2,-30c-6,-16 -14,-23 -22,-19c-7,4 -8,3 -4,-5c4,-6 11,-9 16,-6c15,9 20,-28 7,-49c-13,-20 -12,-21 18,-21c29,-1 39,7 86,73c57,77 98,121 69,72c-9,-14 -15,-46 -15,-72c0,-25 -3,-44 -7,-42c-9,6 -4,-24 7,-33c4,-4 5,-2 1,5c-4,7 -1,12 9,12c9,0 14,-4 11,-9c-7,-10 40,-7 68,4c10,4 21,4 25,-1c3,-5 11,-10 18,-9c22,0 25,14 9,37c-9,12 -16,17 -16,11c0,-7 5,-15 10,-18c15,-9 12,-25 -4,-19c-19,7 -40,50 -31,64c5,8 10,8 21,-1c12,-10 13,-9 8,5c-4,12 -2,15 9,10c9,-3 13,-13 10,-25c-3,-10 0,-19 6,-19c6,0 11,-5 11,-11c0,-19 24,-34 50,-32c61,7 75,10 74,21c-1,7 -2,18 -2,26c-1,8 -9,12 -20,9c-14,-3 -18,2 -18,21c0,14 4,26 9,26c4,0 5,5 2,10c-3,6 -2,10 4,10c6,0 8,6 5,13c-7,19 22,42 32,26c4,-7 3,-9 -4,-5c-6,3 -14,1 -18,-5c-4,-7 -3,-10 2,-6c5,3 18,-1 29,-9c10,-8 14,-14 8,-14c-6,0 -10,-8 -8,-17c4,-27 -5,-36 -21,-22c-12,10 -17,9 -27,0c-9,-10 -8,-11 4,-6c10,4 20,1 24,-4c3,-6 11,-9 16,-6c5,4 9,1 9,-4c0,-6 -4,-11 -10,-11c-5,0 -1,-9 10,-20c12,-12 19,-24 16,-28c-2,-4 13,-7 34,-7c26,0 36,4 33,13c-4,10 -9,10 -20,1c-8,-7 -2,6 13,29c27,42 54,55 54,28c0,-8 5,-16 11,-18c14,-5 3,-48 -12,-48c-6,0 -5,8 1,20c6,11 7,20 3,19c-4,-1 -15,-1 -23,0c-13,1 -13,2 0,12c12,8 12,10 1,7c-8,-2 -15,-14 -16,-26c-1,-17 1,-19 12,-11c15,13 18,-2 3,-17c-7,-7 -1,-10 19,-10c17,0 28,3 25,8c-3,4 -1,8 5,8c5,0 12,-4 15,-8c7,-12 64,-13 72,-1c3,6 3,13 -1,17c-3,3 -10,0 -15,-8c-5,-8 -12,-11 -16,-7c-4,4 5,18 19,31c14,13 23,27 20,30c-4,3 -1,6 5,6c7,0 11,6 10,12c-2,7 6,14 17,16c15,2 21,-3 22,-18c1,-11 -4,-20 -12,-20c-9,0 -12,6 -9,18c5,14 4,14 -4,2c-6,-8 -9,-17 -6,-21c2,-4 -2,-9 -8,-12c-7,-2 -9,-8 -5,-13c4,-5 11,-4 15,1c4,6 14,11 22,13c13,2 12,0 -1,-10c-9,-7 -16,-17 -17,-21c0,-5 -4,-12 -8,-15c-4,-4 -4,-1 0,6c4,6 2,12 -4,12c-24,0 -2,-24 23,-25c22,-2 25,1 16,12c-7,7 -9,16 -5,20c3,4 12,-1 19,-10c15,-20 97,-30 97,-11c0,7 10,16 23,20c20,7 19,8 -13,19c-40,13 -43,25 -11,41c19,10 20,13 6,24c-14,12 -14,15 1,31c10,11 13,19 8,19c-5,0 -1,7 9,14c10,8 17,18 15,22c-1,5 3,18 9,29c6,11 13,23 15,26c1,4 -6,17 -17,30c-12,13 -14,19 -5,14c8,-5 12,-4 7,0c-4,5 -20,10 -35,12c-23,2 -24,1 -7,-7c20,-9 20,-9 0,-9c-12,-1 -26,4 -33,11c-9,9 -15,9 -24,-1c-9,-10 -9,-12 -1,-7c6,3 14,3 17,-2c2,-4 -4,-9 -15,-9c-10,-1 -19,4 -19,10c0,7 -5,4 -11,-5c-5,-10 -16,-15 -24,-12c-21,9 -19,25 3,17c9,-3 14,-3 10,2c-10,11 -67,14 -74,4c-3,-5 -23,-18 -44,-29c-31,-16 -38,-17 -34,-5c4,8 10,12 15,9c5,-3 9,0 9,5c0,6 6,11 14,11c8,0 17,4 20,8c2,4 -6,8 -19,8c-13,0 -21,-4 -19,-8c15,-24 -46,8 -68,36c-17,21 -17,21 -35,2c-10,-10 -12,-16 -5,-12c16,9 15,1 -3,-35c-9,-16 -20,-27 -25,-24c-6,4 -10,8 -10,11c0,3 5,2 10,-1c6,-3 10,-2 10,4c0,5 -3,11 -7,14c-5,2 -3,3 2,2c6,-2 10,9 10,23c0,17 8,30 23,38c23,11 23,12 3,17c-12,3 -19,1 -16,-3z"/>
   <path id="svg_12" d="m7250.000015,7804.444458c-18,-14 -27,-15 -32,-7c-5,7 -7,3 -5,-10c4,-28 17,-43 17,-20c0,10 5,17 11,17c6,0 9,-8 7,-17c-3,-13 -13,-18 -35,-17c-25,2 -29,-1 -20,-11c7,-7 16,-10 21,-8c5,3 -2,-8 -15,-26c-12,-17 -27,-31 -32,-31c-5,0 -7,-5 -5,-12c6,-16 -17,-81 -30,-86c-6,-2 -12,5 -14,14c-3,16 -4,16 -16,1c-12,-14 -10,-20 14,-42c15,-14 24,-28 21,-31c-6,-7 6,-24 41,-57c18,-17 37,-22 77,-23c40,0 52,3 48,13c-3,8 2,13 13,13c9,0 15,3 11,6c-3,3 8,18 24,31c16,14 33,23 36,19c4,-3 1,-6 -5,-6c-6,0 -9,-9 -7,-20c2,-11 -1,-23 -7,-26c-6,-4 -8,-3 -5,3c3,5 0,10 -8,10c-9,0 -11,-4 -6,-11c5,-6 9,-14 8,-18c-1,-3 2,-10 6,-15c5,-4 7,-3 5,2c-1,6 2,10 7,10c6,0 9,-2 8,-5c-1,-4 15,-6 35,-6c36,0 71,27 76,59c3,19 17,38 25,33c4,-3 7,5 8,17c0,12 -1,16 -4,9c-3,-6 -9,-9 -14,-6c-6,3 -5,12 3,22c11,15 11,15 -4,4c-12,-10 -17,-10 -20,-1c-2,7 -12,13 -21,15c-9,1 -15,-2 -11,-7c3,-5 0,-9 -5,-9c-6,0 -11,4 -11,8c0,4 -10,8 -21,9c-22,2 -22,2 1,-14c18,-13 27,-14 41,-4c11,6 19,7 19,2c0,-12 -25,-32 -32,-26c-3,3 -22,8 -43,10c-34,5 -36,4 -24,-11c13,-16 12,-16 -9,-3c-19,12 -20,16 -8,25c12,9 12,12 -2,22c-9,7 -11,10 -3,6c9,-5 11,-1 7,13c-4,12 1,29 13,45c18,22 18,27 6,52c-8,15 -14,32 -12,38c4,18 -82,30 -102,14c-12,-9 -13,-8 -8,7c4,10 2,17 -6,17c-7,0 -3,7 7,15c11,8 18,17 15,19c-2,3 -15,-4 -29,-14z"/>
   <path id="svg_13" d="m5413.000015,7764.444458c-13,-5 -23,-6 -23,-2c0,4 -5,-1 -11,-10c-5,-10 -15,-18 -20,-18c-6,0 -7,5 -3,12c4,7 3,8 -5,4c-6,-4 -9,-11 -6,-15c2,-5 -2,-17 -10,-27c-12,-16 -16,-17 -24,-5c-13,20 -2,48 11,29c8,-11 9,-10 6,1c-2,8 -11,15 -20,17c-15,2 -16,-8 -4,-61c2,-12 -5,-27 -18,-38c-11,-10 -15,-16 -8,-12c15,8 15,0 0,-28c-16,-31 -11,-129 9,-144c9,-7 12,-17 7,-25c-6,-10 -4,-10 9,1c9,7 17,9 17,4c0,-5 8,-10 18,-11c42,-2 78,13 121,52c25,22 40,33 32,23c-12,-15 -12,-17 3,-11c19,7 19,4 2,45c-12,29 -12,36 0,47c7,7 16,12 19,11c3,0 11,1 17,3c14,5 1,28 -15,28c-8,0 -8,-3 2,-9c8,-5 9,-11 3,-15c-20,-12 -22,26 -3,43c13,11 17,22 11,31c-4,7 -7,22 -5,32c2,10 0,16 -6,13c-5,-4 -6,-12 -3,-18c4,-7 -8,5 -25,26c-34,39 -42,41 -78,27z"/>
  </g>
 </g>
</svg>